<?xml version="1.0" encoding="UTF-8" standalone="no"?>
<svg
   xmlns:dc="http://purl.org/dc/elements/1.1/"
   xmlns:cc="http://creativecommons.org/ns#"
   xmlns:rdf="http://www.w3.org/1999/02/22-rdf-syntax-ns#"
   xmlns:svg="http://www.w3.org/2000/svg"
   xmlns="http://www.w3.org/2000/svg"
   viewBox="0 0 666.66669 666.66669"
   height="666.66669"
   width="666.66669"
   xml:space="preserve"
   id="svg2"
   version="1.1"><metadata
     id="metadata8"><rdf:RDF><cc:Work
         rdf:about=""><dc:format>image/svg+xml</dc:format><dc:type
           rdf:resource="http://purl.org/dc/dcmitype/StillImage" /></cc:Work></rdf:RDF></metadata><defs
     id="defs6" /><g
     transform="matrix(1.3333333,0,0,-1.3333333,0,666.66667)"
     id="g10"><g
       transform="scale(0.1)"
       id="g12"><path
         id="path14"
         style="fill:#ffffff;fill-opacity:1;fill-rule:nonzero;stroke:none"
         d="M 5000,0 H 0 V 5000 H 5000 V 0" /><path
         id="path16"
         style="fill:#f4735a;fill-opacity:1;fill-rule:nonzero;stroke:none"
         d="m 681.172,3411.84 17.375,-286.41 c 0,0 -12.32,-114.35 -19.516,-204.97 -1.109,-13.95 -1.601,-27.6 -1.64,-41.03 -0.203,-73.81 75.711,-106.29 89.695,-0.01 10.008,76.04 20.23,144.95 25.852,157.55 9.32,20.88 26.558,211.68 44.152,331.02 -57.129,12.97 -99.309,28.68 -155.918,43.85" /><path
         id="path18"
         style="fill:#f3e0d0;fill-opacity:1;fill-rule:nonzero;stroke:none"
         d="m 677.547,2879.42 c -0.195,-73.78 25.344,-141.23 26.555,-217.86 l 35.437,-8.63 c 0,0 13.566,120.21 27.551,226.49 h -89.543" /><path
         id="path20"
         style="fill:#f9bcb1;fill-opacity:1;fill-rule:nonzero;stroke:none"
         d="m 833.934,3345.81 c 1.046,7.61 2.101,15.03 3.156,22.18 -57.129,12.97 -99.309,28.68 -155.918,43.85 l 3.183,-52.52 c 49.672,-6.21 99.719,-9.18 149.579,-13.51" /><path
         id="path22"
         style="fill:#f03f4d;fill-opacity:1;fill-rule:nonzero;stroke:none"
         d="m 652.336,3630.29 c -5.633,-18.51 -10.219,-36.21 -12.043,-49.62 -6.477,-47.47 33.441,-159.66 33.441,-159.66 l 10.621,-61.69 149.579,-13.51 c 6.578,45.53 21.289,115.77 22.476,132.38 1.5,21.01 4.41,41.61 -0.398,86.29 -2.34,21.72 -5.059,44.3 -7.801,65.81 H 652.336" /><path
         id="path24"
         style="fill:#323161;fill-opacity:1;fill-rule:nonzero;stroke:none"
         d="m 749.383,4405.97 c -81.199,-29.2 -128.992,-123.33 -116.602,-208.74 12.391,-85.39 76.821,-157.98 155.594,-193.21 29.738,-13.31 62.574,-22.02 94.848,-17.56 32.269,4.46 63.711,24.05 75.867,54.27 12.156,30.24 3.562,64.86 -9.785,94.58 -13.348,29.73 -31.426,57.71 -39.129,89.37 -12.133,49.87 1.547,107.6 -27.926,149.61 -28.109,40.08 -86.809,48.25 -132.867,31.68" /><path
         id="path26"
         style="fill:#f4735a;fill-opacity:1;fill-rule:nonzero;stroke:none"
         d="m 790.809,4106.99 29.66,67.38 c 0,0 25.324,-6.85 36.465,3.91 4.183,4.04 8.414,25.62 10.531,52.49 0.254,3.21 0.476,6.49 0.664,9.83 0.195,3.46 14.101,-5.9 14.223,-2.35 0.242,7.27 -13.43,27.58 -13.563,34.94 -0.598,33.96 -5.531,66.85 -18.23,79.25 -28.985,28.31 -130.512,32.46 -144.352,-16.83 -13.844,-49.3 -1.012,-105.29 39.938,-143.25 l -27.469,-69.88 72.133,-15.49" /><path
         id="path28"
         style="fill:#323161;fill-opacity:1;fill-rule:nonzero;stroke:none"
         d="m 873.723,4326.21 c -7.844,33.51 -61.239,7.32 -70.129,-9.95 -5.399,-10.49 -6.653,-22.3 -6.883,-33.85 -0.445,-22.47 2.68,-44.98 0.656,-67.38 -2.027,-22.4 -10.043,-45.55 -28.722,-60.55 -30.895,-24.81 -101.79,-15.05 -98.899,28.95 1.07,16.28 9.086,32.52 17.059,46.92 1.578,2.85 15.074,19.52 14.039,22.26 -0.031,0.08 -39.512,104.44 50.332,122.44 19.105,3.83 35.14,5.88 48.551,6.75 34.851,2.25 66.035,-21.59 73.996,-55.59 v 0" /><path
         id="path30"
         style="fill:#fac017;fill-opacity:1;fill-rule:nonzero;stroke:none"
         d="m 681.172,4113.04 c 0,0 -62.832,-29.97 -99.211,-75.45 -36.379,-45.47 -36.379,-328.42 -19.199,-337.51 17.179,-9.1 101.629,-18.19 106.898,-15.16 5.27,3.03 0,86.9 0,86.9 l 11.512,341.22" /><path
         id="path32"
         style="fill:#f3e0d0;fill-opacity:1;fill-rule:nonzero;stroke:none"
         d="m 668.34,3730.62 -34.442,-68.88 c -6.535,-13.07 -4.269,-28.83 5.684,-39.54 v 0 l 0.711,-41.53 215.27,-12.1 18.281,40.69 14.222,9.48 c 11.934,7.95 17.817,22.37 14.852,36.41 l -39.891,188.74 c 0,0 19.395,59.87 23.196,89 3.804,29.12 -90.586,176.38 -104.071,194.18 -13.488,17.8 -66.886,21.03 -89.543,0 -22.652,-21.04 -47.804,-89 -53.027,-108.42 -5.223,-19.42 28.758,-288.03 28.758,-288.03" /><path
         id="path34"
         style="fill:#f3e0d0;fill-opacity:1;fill-rule:nonzero;stroke:none"
         d="m 742.859,4074.75 c 21.329,13.7 93.243,-30.18 69.442,-145.16 -23.797,-114.97 -28.117,-148.72 -28.117,-148.72 0,0 34.171,-32.75 14.023,-64.83 -20.148,-32.08 30.184,-27.99 8.828,-63.61 l 12.403,-81.83 -41.11,-45.75 -32.539,96.76 c 0,0 -27.562,13.56 -20.195,50.31 7.363,36.75 -43.094,55.39 -36.129,101.91 6.965,46.52 -58.938,228.73 53.394,300.92" /><path
         id="path36"
         style="fill:#d9ab8f;fill-opacity:1;fill-rule:nonzero;stroke:none"
         d="m 759.75,3580.87 c -0.027,0 -0.059,0 -0.082,0 -1.676,0.04 -2.996,1.44 -2.949,3.11 0.437,15.44 -5.348,20.81 -16.864,31.49 l -2.253,2.1 c -1.723,1.59 -3.567,3.13 -5.403,4.67 -5.695,4.75 -11.582,9.68 -14.582,16.88 -3.601,8.63 -1.961,17.8 -0.367,26.65 0.402,2.24 0.805,4.48 1.113,6.68 2.102,15.13 -0.535,30.95 -7.433,44.55 -3.043,6.03 -7.004,11.81 -10.828,17.41 -5.661,8.27 -11.512,16.82 -14.844,26.62 -3.512,10.32 -3.973,21.13 -4.422,31.58 l -6.734,157.75 c -0.071,1.68 1.234,3.09 2.902,3.17 1.793,0.17 3.086,-1.24 3.164,-2.91 l 6.73,-157.74 c 0.426,-10.03 0.872,-20.41 4.102,-29.91 3.063,-9.01 8.426,-16.85 14.105,-25.14 3.938,-5.75 8.012,-11.71 11.239,-18.08 7.449,-14.71 10.297,-31.8 8.023,-48.13 -0.32,-2.29 -0.734,-4.6 -1.148,-6.92 -1.504,-8.36 -2.918,-16.26 0,-23.25 2.426,-5.84 7.496,-10.08 12.867,-14.56 1.922,-1.6 3.84,-3.21 5.648,-4.9 l 2.243,-2.08 c 11.636,-10.78 19.316,-17.91 18.804,-36.09 -0.047,-1.65 -1.394,-2.95 -3.031,-2.95" /><path
         id="path38"
         style="fill:#d9ab8f;fill-opacity:1;fill-rule:nonzero;stroke:none"
         d="m 818.25,3573.67 c -1.473,0 -2.766,1.07 -2.988,2.58 -1.203,7.93 -3.703,15.64 -6.117,23.09 -4.063,12.51 -8.266,25.45 -6.692,40.24 0.25,2.36 0.629,4.74 1,7.13 1.172,7.44 2.285,14.47 -0.402,20.58 -1.356,3.09 -3.641,5.79 -6.063,8.65 -2.879,3.38 -5.851,6.89 -7.465,11.36 -3.093,8.52 -0.222,17.51 2.313,25.44 l 0.465,1.45 c 6.293,19.88 6.48,35.43 0.586,47.56 -0.996,2.05 -2.176,4.02 -3.34,5.98 -2.238,3.76 -4.555,7.64 -5.746,12.12 -1.988,7.47 -0.465,15.26 0.746,21.53 1.183,6.06 2.406,12.13 3.617,18.19 6.231,31.02 12.668,63.1 14.059,95.05 0.07,1.67 1.398,3.08 3.16,2.91 1.676,-0.08 2.972,-1.5 2.902,-3.17 -1.422,-32.42 -7.902,-64.73 -14.176,-95.98 -1.211,-6.05 -2.425,-12.1 -3.605,-18.16 -1.102,-5.65 -2.477,-12.68 -0.84,-18.81 0.973,-3.66 2.973,-7.02 5.094,-10.57 1.254,-2.12 2.508,-4.23 3.582,-6.43 6.613,-13.6 6.523,-30.63 -0.262,-52.05 l -0.461,-1.47 c -2.351,-7.35 -4.781,-14.95 -2.398,-21.53 1.25,-3.44 3.746,-6.39 6.394,-9.51 2.594,-3.06 5.282,-6.22 6.992,-10.12 3.399,-7.74 2.094,-15.99 0.84,-23.97 -0.359,-2.28 -0.722,-4.57 -0.965,-6.82 -1.433,-13.5 2.387,-25.27 6.43,-37.73 2.488,-7.68 5.07,-15.62 6.344,-24.06 0.254,-1.65 -0.891,-3.2 -2.543,-3.45 -0.152,-0.02 -0.309,-0.03 -0.461,-0.03" /><path
         id="path40"
         style="fill:#e72f42;fill-opacity:1;fill-rule:nonzero;stroke:none"
         d="m 805.391,3448.9 c -0.856,0 -1.7,0.35 -2.305,1.05 -15.211,17.74 -25.016,40.29 -27.602,63.5 -0.183,1.66 1.012,3.16 2.676,3.34 1.656,0.35 3.16,-1.01 3.352,-2.68 2.449,-22 11.754,-43.39 26.179,-60.2 1.09,-1.28 0.946,-3.19 -0.328,-4.28 -0.57,-0.5 -1.273,-0.73 -1.972,-0.73" /><path
         id="path42"
         style="fill:#323161;fill-opacity:1;fill-rule:nonzero;stroke:none"
         d="m 703.742,2672.72 -11.355,-61.74 h 125.871 l -69.137,30.87 -7.32,30.87 h -38.059" /><path
         id="path44"
         style="fill:#fac017;fill-opacity:1;fill-rule:nonzero;stroke:none"
         d="m 654.488,4060.34 c 0,0 58.84,60.25 137.453,-10.62 0,0 -26.718,98.35 -110.769,63.32 0,0 -22.875,-24.91 -26.684,-52.7" /><path
         id="path46"
         style="fill:#f7980f;fill-opacity:1;fill-rule:nonzero;stroke:none"
         d="m 602.594,3713.5 c -1.516,0 -2.824,1.14 -3.008,2.67 -12.125,104.45 -15.211,210.66 -9.164,315.69 0.098,1.66 1.414,3.02 3.195,2.85 1.676,-0.1 2.949,-1.53 2.856,-3.2 -6.024,-104.68 -2.95,-210.54 9.14,-314.62 0.192,-1.68 -1,-3.18 -2.664,-3.37 -0.117,-0.01 -0.238,-0.02 -0.355,-0.02" /><path
         id="path48"
         style="fill:#323161;fill-opacity:1;fill-rule:nonzero;stroke:none"
         d="m 1863.43,2741.38 26.7,-80.44 c 0,0 82.3,-4.97 84.63,-10.62 l -118.42,-32.42 -30.92,113.07 38.01,10.41" /><path
         id="path50"
         style="fill:#323161;fill-opacity:1;fill-rule:nonzero;stroke:none"
         d="m 1238.94,2610.98 h -67.83 l -49.2,38.02 61.02,100.08 33.66,-20.5 -40.19,-74.62 12.52,-29.84 50.02,-13.14" /><path
         id="path52"
         style="fill:#3f3c76;fill-opacity:1;fill-rule:nonzero;stroke:none"
         d="m 1653.55,3495.49 241.72,-810.58 -68.7,-17.81 -188.79,424.56 -103.7,187.56 -105.16,-259.99 -228.31,-348.09 -50.6,36.06 176.01,406.62 56.85,369.54 270.68,12.13" /><path
         id="path54"
         style="fill:#323161;fill-opacity:1;fill-rule:nonzero;stroke:none"
         d="m 1540.96,3302.71 c -0.56,0 -1.13,0.16 -1.64,0.49 -1.41,0.9 -1.82,2.78 -0.91,4.19 5.55,8.62 14.89,28.38 23.92,47.5 9.54,20.2 18.56,39.28 24.33,48.25 0.9,1.41 2.79,1.83 4.19,0.9 1.41,-0.9 1.82,-2.78 0.91,-4.19 -5.56,-8.63 -14.91,-28.42 -23.95,-47.56 -9.53,-20.17 -18.54,-39.23 -24.3,-48.19 -0.58,-0.9 -1.56,-1.39 -2.55,-1.39" /><path
         id="path56"
         style="fill:#f4735a;fill-opacity:1;fill-rule:nonzero;stroke:none"
         d="m 1553.27,4021.78 29.66,67.38 c 0,0 25.32,-6.85 36.46,3.91 4.19,4.04 8.42,25.61 10.54,52.49 0.25,3.21 0.47,6.49 0.66,9.83 0.2,3.46 14.1,-5.91 14.22,-2.35 0.25,7.27 -13.43,27.57 -13.56,34.94 -0.59,33.96 -5.53,66.85 -18.23,79.25 -28.98,28.31 -130.51,32.45 -144.35,-16.84 -13.84,-49.29 -1.01,-105.28 39.94,-143.24 l -27.47,-69.88 72.13,-15.49" /><path
         id="path58"
         style="fill:#fac017;fill-opacity:1;fill-rule:nonzero;stroke:none"
         d="m 1624.56,4295.18 c 17.88,-17.16 27.96,-42.16 26.97,-66.92 -41.41,-22.28 -83.02,-40.96 -124.43,-63.24 5.69,-63.38 -1.52,-129.53 -31.72,-185.54 -30.2,-56.02 -86.13,-100.32 -149.53,-105.83 -63.39,-5.51 -130.91,34.27 -147.42,95.72 -13.85,51.55 8.52,106.94 42.53,148.08 34.01,41.13 78.76,71.68 119.56,106.09 39.38,33.22 76.48,71.07 123.81,91.44 47.33,20.37 103.05,15.88 140.23,-19.8" /><path
         id="path60"
         style="fill:#323161;fill-opacity:1;fill-rule:nonzero;stroke:none"
         d="m 1443.63,4027.83 c 0,0 -62.83,-29.98 -99.21,-75.45 -36.38,-45.47 -36.38,-328.42 -19.2,-337.52 17.18,-9.09 101.63,-18.19 106.9,-15.15 5.27,3.03 0,86.9 0,86.9 l 11.51,341.22" /><path
         id="path62"
         style="fill:#75beeb;fill-opacity:1;fill-rule:nonzero;stroke:none"
         d="m 1391.03,3621.21 -14.55,-56.78 c -6.54,-13.07 -4.27,-28.83 5.68,-39.54 v 0 l 0.71,-41.53 270.68,12.13 18.28,40.68 -46.34,222.51 c 0,0 19.4,59.87 23.2,89 3.8,29.12 -90.59,176.37 -104.08,194.18 -13.48,17.8 -66.88,21.03 -89.54,0 -22.65,-21.04 -47.8,-89 -53.03,-108.42 -5.22,-19.42 -11.01,-312.23 -11.01,-312.23" /><path
         id="path64"
         style="fill:#323161;fill-opacity:1;fill-rule:nonzero;stroke:none"
         d="m 1416.95,3975.12 c 0,0 58.84,60.26 137.46,-10.61 0,0 -26.72,98.35 -110.78,63.32 0,0 -22.87,-24.91 -26.68,-52.71" /><path
         id="path66"
         style="fill:#3f3c76;fill-opacity:1;fill-rule:nonzero;stroke:none"
         d="m 1365.06,3628.29 c -1.52,0 -2.83,1.13 -3.01,2.67 -12.13,104.45 -15.21,210.66 -9.17,315.68 0.1,1.67 1.36,3.03 3.2,2.86 1.68,-0.1 2.95,-1.53 2.85,-3.2 -6.02,-104.68 -2.94,-210.54 9.15,-314.63 0.19,-1.67 -1,-3.17 -2.67,-3.36 -0.12,-0.01 -0.23,-0.02 -0.35,-0.02" /><path
         id="path68"
         style="fill:#f4735a;fill-opacity:1;fill-rule:nonzero;stroke:none"
         d="m 1689.4,3465.79 c -10.18,1.09 -18.63,23.05 -21.86,36.8 -13.38,1.72 -33.57,17.64 -46.79,20.51 28.13,-69.88 32.87,-107.37 37.87,-115.22 11.09,-17.38 17.95,-26.46 28.82,-14.64 10.88,11.82 22.29,-8.86 29.5,2.59 7.22,11.45 23.55,-9.99 26.03,4.99 2.49,14.99 -22.96,33.23 -22.96,33.23 0,0 8.45,27.55 -30.61,31.74" /><path
         id="path70"
         style="fill:#75beeb;fill-opacity:1;fill-rule:nonzero;stroke:none"
         d="m 1435.54,3964.77 c -8.57,-45.56 193.8,-503.03 193.8,-503.03 l 67.44,23.43 c 0,0 -34.74,94.67 -33.68,130.5 1.07,35.83 -0.48,48.9 -31.67,77.1 -31.18,28.2 -30.88,195.74 -54.28,241.1 -23.41,45.36 -135.66,62.49 -141.61,30.9" /><path
         id="path72"
         style="fill:#549cda;fill-opacity:1;fill-rule:nonzero;stroke:none"
         d="m 1627.22,3482.88 c -1.13,0 -2.21,0.62 -2.73,1.71 -42.52,88.12 -135.21,297.63 -160.78,383.87 -0.48,1.61 0.44,3.29 2.04,3.77 1.63,0.46 3.3,-0.44 3.77,-2.04 25.49,-85.94 117.98,-294.99 160.43,-382.97 0.73,-1.5 0.09,-3.31 -1.42,-4.05 -0.42,-0.2 -0.87,-0.29 -1.31,-0.29" /><path
         id="path74"
         style="fill:#549cda;fill-opacity:1;fill-rule:nonzero;stroke:none"
         d="m 1596.41,3838.7 h -0.01 c -1.67,0 -3.03,1.36 -3.02,3.03 0.12,41.04 -13.98,81.26 -39.68,113.24 -1.05,1.31 -0.85,3.21 0.46,4.26 1.29,1.05 3.21,0.85 4.26,-0.46 26.57,-33.06 41.14,-74.63 41.02,-117.05 0,-1.67 -1.36,-3.02 -3.03,-3.02" /><path
         id="path76"
         style="fill:#323161;fill-opacity:1;fill-rule:nonzero;stroke:none"
         d="m 2283.72,3243.52 38.22,184.96 24.22,-0.46 16.27,-184.5 h 149.18 c 2.27,81.88 2.61,236.96 -0.28,313.3 l -353.77,9.46 c -3.64,-61.03 -5.49,-229.36 -11.94,-322.76 h 138.1" /><path
         id="path78"
         style="fill:#323161;fill-opacity:1;fill-rule:nonzero;stroke:none"
         d="m 2145.62,3243.52 c -14.09,-261.15 -27.34,-593.53 -27.34,-593.53 l -52.69,-39.01 h 82.25 l 135.88,632.54 -76.36,12.13 -61.74,-12.13" /><path
         id="path80"
         style="fill:#323161;fill-opacity:1;fill-rule:nonzero;stroke:none"
         d="m 2511.61,3243.52 -110.23,60.63 -38.95,-60.63 65.36,-632.54 h 82.25 l -46.8,35.58 c 0,0 41.5,294.4 48.37,596.96" /><path
         id="path82"
         style="fill:#433f92;fill-opacity:1;fill-rule:nonzero;stroke:none"
         d="m 2335.29,3450.37 c -1.34,0 -2.56,0.89 -2.93,2.25 l -20.53,76.71 c -0.43,1.61 0.53,3.28 2.15,3.71 1.65,0.42 3.27,-0.52 3.71,-2.14 l 20.53,-76.72 c 0.43,-1.61 -0.53,-3.28 -2.15,-3.7 -0.26,-0.08 -0.53,-0.11 -0.78,-0.11" /><path
         id="path84"
         style="fill:#f3e0d0;fill-opacity:1;fill-rule:nonzero;stroke:none"
         d="m 2119.84,3996.29 c -24.07,-28.29 -69.54,-152.15 -69.54,-173.59 0,-21.44 -23.22,-224.3 15.29,-228.17 38.5,-3.86 66.56,49.37 66.56,49.37 l -12.31,352.39" /><path
         id="path86"
         style="fill:#f03f4d;fill-opacity:1;fill-rule:nonzero;stroke:none"
         d="m 2517.56,3978.46 -24.25,-438.64 -335.75,26.46 -45.06,-28.77 c -18.56,107.42 -31.78,234.87 -14.1,346.02 5.61,35.3 22.85,119.52 29.88,154.87 3.8,19.08 158.28,101.6 186.4,99.94 28.12,-1.65 41.05,2.26 84.53,-7.69 49.08,-11.23 135.19,-58.99 153.37,-81.12 18.19,-22.12 46.56,-315.96 40.37,-344.05 -15.11,-68.5 -53.33,-189.19 -53.33,-189.19 l -46.31,23.53" /><path
         id="path88"
         style="fill:#e72f42;fill-opacity:1;fill-rule:nonzero;stroke:none"
         d="m 2221.12,3667.57 c -1.08,0 -2.13,0.57 -2.67,1.59 -0.79,1.48 -0.24,3.32 1.24,4.11 57.51,30.77 109.33,74.82 149.85,127.39 1.05,1.31 2.94,1.54 4.26,0.55 1.33,-1.02 1.57,-2.93 0.55,-4.26 -41.04,-53.24 -93.54,-97.86 -151.8,-129.03 -0.45,-0.24 -0.94,-0.35 -1.43,-0.35" /><path
         id="path90"
         style="fill:#e72f42;fill-opacity:1;fill-rule:nonzero;stroke:none"
         d="m 2323.12,3627.99 c -0.65,0 -1.31,0.21 -1.86,0.64 -1.32,1.03 -1.56,2.94 -0.53,4.25 39.09,50.19 67.01,92.45 85.46,148.02 0.53,1.59 2.24,2.46 3.84,1.92 1.59,-0.52 2.45,-2.24 1.92,-3.83 -18.73,-56.4 -46.95,-99.15 -86.44,-149.83 -0.59,-0.77 -1.49,-1.17 -2.39,-1.17" /><path
         id="path92"
         style="fill:#e72f42;fill-opacity:1;fill-rule:nonzero;stroke:none"
         d="m 2167.32,3591.5 c -0.08,0 -0.16,0 -0.24,0.02 -1.66,0.11 -2.92,1.57 -2.8,3.24 4.05,54.08 8.92,105.81 13.63,155.82 3.53,37.48 7.19,76.24 10.54,116.38 4.04,48.41 4.84,140.54 -17.84,178.76 -0.85,1.44 -0.38,3.3 1.06,4.15 1.45,0.86 3.3,0.39 4.15,-1.06 23.46,-39.52 22.77,-133.22 18.67,-182.36 -3.35,-40.16 -7.01,-78.94 -10.54,-116.43 -4.71,-50 -9.58,-101.69 -13.61,-155.71 -0.13,-1.6 -1.46,-2.81 -3.02,-2.81" /><path
         id="path94"
         style="fill:#f4735a;fill-opacity:1;fill-rule:nonzero;stroke:none"
         d="m 2289.5,4202.84 v -70.78 c 0,0 57.18,-60.6 109.71,-1.41 l -4.59,72.19 H 2289.5" /><path
         id="path96"
         style="fill:#f4735a;fill-opacity:1;fill-rule:nonzero;stroke:none"
         d="m 2429.41,4252.45 c -2.15,0.96 -4.06,1.46 -5.81,1.66 8.1,51.61 4.63,115.73 -79.88,113.22 -50.42,-1.5 -65.41,-47.75 -68.65,-96.1 -2.77,1.44 -6.47,1.87 -11.45,0.38 -17.41,-5.23 -5.32,-49.14 12.72,-55.88 6.68,-44.2 30.04,-72.51 63.47,-75.02 30.91,-2.31 55.06,21.71 69.62,57.95 18.81,4.18 36.61,46.34 19.98,53.79" /><path
         id="path98"
         style="fill:#d06350;fill-opacity:1;fill-rule:nonzero;stroke:none"
         d="m 2343.83,4137.53 c -1.4,0 -2.83,0.06 -4.25,0.16 -17.6,1.32 -33.07,9.6 -44.72,23.94 -1.06,1.29 -0.86,3.2 0.43,4.26 1.29,1.05 3.21,0.87 4.27,-0.44 10.58,-13.01 24.57,-20.52 40.47,-21.71 16.6,-1.23 31.65,5.36 44.75,19.62 1.14,1.24 3.06,1.31 4.29,0.18 1.23,-1.13 1.31,-3.05 0.18,-4.28 -13.11,-14.28 -28.73,-21.73 -45.42,-21.73" /><path
         id="path100"
         style="fill:#f4735a;fill-opacity:1;fill-rule:nonzero;stroke:none"
         d="m 2112.5,3537.51 c 0,0 46,-89.67 61.93,-48.8 15.93,40.88 -16.87,77.57 -16.87,77.57 v 0 l -45.06,-28.77" /><path
         id="path102"
         style="fill:#3f3c76;fill-opacity:1;fill-rule:nonzero;stroke:none"
         d="m 2275.07,4271.23 10.74,-17.25 h 11.4 v 29.6 c 0,0 14.36,14.57 15.88,31.15 l 86.12,-6.14 c 0,0 -2.75,-21.22 4.07,-29.56 v -34.1 h 10.61 l 9.71,9.18 c 0,0 20.89,75.7 12.41,94.65 -8.48,18.94 -25.91,12.12 -25.91,12.12 0,0 -28.36,33.35 -67.99,21.98 -39.63,-11.37 -71.46,-35.62 -77.53,-52.29 -6.06,-16.68 10.49,-59.34 10.49,-59.34" /><path
         id="path104"
         style="fill:#f4735a;fill-opacity:1;fill-rule:nonzero;stroke:none"
         d="m 2493.31,3539.82 c 0,0 -44.95,-50.3 -22.68,-81.38 22.28,-31.07 68.99,57.85 68.99,57.85 0,0 -40.07,23.03 -46.31,23.53" /><path
         id="path106"
         style="fill:#e72f42;fill-opacity:1;fill-rule:nonzero;stroke:none"
         d="m 2494.08,3545.84 c -1.29,0 -2.49,0.83 -2.89,2.13 -0.5,1.6 0.39,3.29 1.99,3.79 0.24,0.1 7.17,2.65 9.05,15.56 0.55,3.72 -2.56,10.39 -5.85,17.45 -8.37,17.97 -21.03,45.13 4.4,69.24 20.47,19.42 14.67,43.74 9.55,65.21 -3.05,12.77 -5.67,23.8 -1.85,31.72 5.25,10.92 5.93,111.92 6.43,185.66 0.4,59.69 0.73,96.64 2.32,103.8 0.37,1.63 1.99,2.64 3.62,2.31 1.63,-0.37 2.66,-1.99 2.3,-3.62 -1.53,-6.9 -1.84,-53.35 -2.18,-102.53 -0.67,-99.78 -1.62,-177 -7.04,-188.24 -2.88,-5.99 -0.48,-16.05 2.3,-27.7 5.22,-21.91 11.73,-49.19 -11.28,-71.02 -22.26,-21.1 -11.62,-43.93 -3.07,-62.26 4,-8.6 7.16,-15.39 6.36,-20.89 -2.47,-16.91 -12.81,-20.34 -13.25,-20.47 -0.31,-0.09 -0.61,-0.14 -0.91,-0.14" /><path
         id="path108"
         style="fill:#433f92;fill-opacity:1;fill-rule:nonzero;stroke:none"
         d="m 2192.11,3458.23 c -0.68,0 -1.35,0.23 -1.91,0.68 -1.3,1.05 -1.5,2.96 -0.45,4.26 9.08,11.2 13.49,26.44 11.8,40.77 -1.7,14.33 -9.53,28.13 -20.97,36.91 -1.32,1.02 -1.57,2.93 -0.55,4.26 1.02,1.33 2.93,1.58 4.25,0.55 12.9,-9.91 21.38,-24.85 23.28,-41.01 1.91,-16.15 -2.86,-32.66 -13.1,-45.29 -0.59,-0.75 -1.47,-1.13 -2.35,-1.13" /><path
         id="path110"
         style="fill:#433f92;fill-opacity:1;fill-rule:nonzero;stroke:none"
         d="m 2449.53,3413.89 c -1.39,0 -2.64,0.96 -2.96,2.37 -0.36,1.64 0.66,3.26 2.3,3.63 15.56,3.49 30.13,11.84 41.02,23.5 1.14,1.21 3.07,1.28 4.28,0.15 1.23,-1.14 1.29,-3.06 0.15,-4.29 -11.71,-12.54 -27.38,-21.52 -44.13,-25.28 -0.22,-0.05 -0.44,-0.08 -0.66,-0.08" /><path
         id="path112"
         style="fill:#f3e0d0;fill-opacity:1;fill-rule:nonzero;stroke:none"
         d="m 2182.43,4079.38 c 15.4,-28.52 11.25,-148.77 11.25,-148.77 v -48.71 c 0,0 64.58,123.87 47,228.78 l -58.25,-31.3" /><path
         id="path114"
         style="fill:#323161;fill-opacity:1;fill-rule:nonzero;stroke:none"
         d="m 3215.39,4012.38 c 61.4,22.53 108.92,74.2 103.71,140.96 -4.7,60.37 -39.8,117.95 -95.72,143.5 -19.88,9.09 -41.27,15.14 -63.13,15.59 -91.8,1.86 -140.2,-102.48 -149.9,-181.52 -5.13,-41.75 27.43,-60.58 57.15,-82.85 43.51,-32.61 93.33,-55.71 147.89,-35.68" /><path
         id="path116"
         style="fill:#f4735a;fill-opacity:1;fill-rule:nonzero;stroke:none"
         d="m 3182.77,4019.35 30.74,66.89 c 0,0 25.21,-7.26 36.52,3.32 4.25,3.97 8.83,25.48 11.38,52.32 0.31,3.2 0.58,6.48 0.82,9.81 0.26,3.46 14.01,-6.13 14.19,-2.58 0.36,7.27 -12.99,27.79 -13,35.16 -0.05,33.96 -4.45,66.93 -16.95,79.53 -28.53,28.77 -129.97,34.56 -144.61,-14.51 -14.63,-49.06 -2.7,-105.25 37.63,-143.87 l -28.59,-69.42 71.87,-16.65" /><path
         id="path118"
         style="fill:#323161;fill-opacity:1;fill-rule:nonzero;stroke:none"
         d="m 3279.54,4243.31 c -52.42,-55.38 -86.87,-132.17 -159.82,-154.36 -7.33,27.59 -47.26,91 -46.25,119.53 1,28.53 11.64,58.09 34.34,75.41 17.04,13 39.15,17.86 60.58,17.89 43.8,0.06 88.71,-20.86 111.15,-58.47" /><path
         id="path120"
         style="fill:#323161;fill-opacity:1;fill-rule:nonzero;stroke:none"
         d="m 3465.35,2741.38 26.7,-80.44 c 0,0 82.3,-4.97 84.63,-10.62 l -118.42,-32.42 -30.92,113.07 38.01,10.41" /><path
         id="path122"
         style="fill:#323161;fill-opacity:1;fill-rule:nonzero;stroke:none"
         d="m 2840.86,2610.98 h -67.84 l -49.19,38.02 61.02,100.08 33.66,-20.5 -40.19,-74.62 12.52,-29.84 50.02,-13.14" /><path
         id="path124"
         style="fill:#323161;fill-opacity:1;fill-rule:nonzero;stroke:none"
         d="m 3295.55,3074.53 147.31,-400.33 42.04,8.29 -72.57,424.39 v 0 l -120.48,376.48 h -307.06 l -54.39,-382.72 v 0 l -174.07,-398.33 35.23,-23.77 230.28,353.33 17.47,41.62 108.82,242.11 147.42,-241.07" /><path
         id="path126"
         style="fill:#fac017;fill-opacity:1;fill-rule:nonzero;stroke:none"
         d="m 3107.12,4090.68 c 0,0 62.95,-19.75 94.58,-56.11 31.64,-36.36 82.66,-141.53 83.79,-153.34 1.14,-11.8 -37.09,-139.74 -37.09,-139.74 l 77.91,-297.48 c 0,0 -242.62,-37.56 -363.93,0 l 63.49,235.79 c 0,0 -15.54,96.67 -19.28,111.82 -10.82,43.88 7.94,111.08 15.88,157.22 7.93,46.15 44.21,98.74 56.68,109.47 12.47,10.73 27.97,32.37 27.97,32.37" /><path
         id="path128"
         style="fill:#f3e0d0;fill-opacity:1;fill-rule:nonzero;stroke:none"
         d="m 2920.79,3594.2 419.94,74.47 36.43,-232.84 -426.28,-64.44 -30.09,222.81" /><path
         id="path130"
         style="fill:#f4735a;fill-opacity:1;fill-rule:nonzero;stroke:none"
         d="m 3228.61,3783.82 15.74,-62.17 c 0,0 137.88,51.59 146.16,54.59 0,0 24.42,19.27 29.34,22.97 4.93,3.69 20.31,41.85 21.54,45.55 1.24,3.69 -28.31,5.54 -28.31,5.54 0,0 -0.86,18.28 -2.38,24.16 -0.83,3.19 -7.58,17.49 -10.61,7.8 l -6.57,-28.2 -9.37,-9.3 c -4.85,-6.71 -10.46,-35.09 -10.46,-35.09 l -145.08,-25.85" /><path
         id="path132"
         style="fill:#f3e0d0;fill-opacity:1;fill-rule:nonzero;stroke:none"
         d="m 3403.12,3813.6 18.58,68.7 15.39,54.78 19.69,-7.38 -36.42,-117.87 -17.24,1.77" /><path
         id="path134"
         style="fill:#fac017;fill-opacity:1;fill-rule:nonzero;stroke:none"
         d="m 3216.46,3785.66 c 0,0 16.65,47.03 47.97,27.94 31.32,-19.08 56.33,4.56 56.33,4.56 l 52.93,-8.49 16.82,-33.43 -160.67,-67.74 -13.38,77.16" /><path
         id="path136"
         style="fill:#f4735a;fill-opacity:1;fill-rule:nonzero;stroke:none"
         d="m 3441.39,3844.76 c 3.41,7.78 -4.17,31.91 -7.2,29.7 -3.03,-2.21 -4.24,-14.78 -4.24,-14.78 l 2.9,-7.43 c 0,0 -4.97,1.81 -5.23,0.04 -0.25,-1.77 -2.02,-10.11 -2.02,-10.11 l -0.8,-15.98 16.59,18.56" /><path
         id="path138"
         style="fill:#fac017;fill-opacity:1;fill-rule:nonzero;stroke:none"
         d="m 3127.74,4082.91 c -29.19,19.47 -131.25,23.01 -143.38,15.18 -12.13,-7.83 16.17,-32.59 13.14,-49.01 -3.03,-16.42 -62.66,-37.78 -42.44,-73.59 20.21,-35.8 79.83,-78.24 79.83,-78.24 l 92.85,185.66" /><path
         id="path140"
         style="fill:#433f92;fill-opacity:1;fill-rule:nonzero;stroke:none"
         d="m 3157.15,3345.68 c -0.56,0 -1.13,0.15 -1.64,0.48 -1.41,0.9 -1.82,2.78 -0.91,4.19 l 33.98,52.79 c 0.91,1.42 2.78,1.82 4.19,0.91 1.41,-0.91 1.82,-2.79 0.91,-4.2 l -33.98,-52.79 c -0.58,-0.9 -1.55,-1.38 -2.55,-1.38" /><path
         id="path142"
         style="fill:#f4735a;fill-opacity:1;fill-rule:nonzero;stroke:none"
         d="m 3275.17,3471.76 c -10.04,1.98 -16.53,24.59 -18.55,38.58 -13.18,2.89 -31.9,20.5 -44.82,24.52 21.92,-72.07 23.35,-109.83 27.65,-118.09 9.53,-18.29 15.56,-27.93 27.43,-17.11 11.86,10.83 21.42,-10.77 29.61,0 8.19,10.78 22.59,-12.01 26.37,2.7 3.78,14.71 -19.96,35.11 -19.96,35.11 0,0 10.82,26.71 -27.73,34.29" /><path
         id="path144"
         style="fill:#fac017;fill-opacity:1;fill-rule:nonzero;stroke:none"
         d="m 3065.94,3942.53 c -12.53,-44.63 149.05,-469.54 149.05,-469.54 l 69.24,17.43 c 0,0 -26.33,97.35 -22.14,132.95 4.2,35.6 3.79,48.76 -24.8,79.58 -28.6,30.82 -13.64,149.19 -32.99,196.42 -19.35,47.23 -129.67,74.12 -138.36,43.16" /><path
         id="path146"
         style="fill:#f7980f;fill-opacity:1;fill-rule:nonzero;stroke:none"
         d="m 3216.46,3696.88 c -1.22,0 -2.37,0.74 -2.83,1.95 -11.77,30.84 -9.63,64.52 -7.55,97.08 0.55,8.66 1.1,17.3 1.39,25.88 1.46,42.68 -3.7,85.15 -15.34,126.22 -2.7,9.55 -6.18,20.38 -13.35,28.07 -6.27,6.73 -17.25,11.33 -26.15,7.09 -1.52,-0.7 -3.32,-0.07 -4.04,1.44 -0.72,1.51 -0.08,3.32 1.43,4.03 12.05,5.75 25.66,-0.34 33.2,-8.42 8.09,-8.68 11.86,-20.32 14.75,-30.56 11.81,-41.67 17.04,-84.77 15.56,-128.09 -0.29,-8.62 -0.85,-17.32 -1.41,-26.04 -2.03,-31.92 -4.13,-64.93 7.17,-94.54 0.6,-1.57 -0.19,-3.32 -1.75,-3.91 -0.36,-0.14 -0.72,-0.2 -1.08,-0.2" /><path
         id="path148"
         style="fill:#f7980f;fill-opacity:1;fill-rule:nonzero;stroke:none"
         d="m 3165.22,3624.84 c -1.22,0 -2.37,0.75 -2.83,1.96 -9.9,26.17 -19,47.68 -27.79,68.51 -19.42,45.96 -36.18,85.66 -49.03,148.82 -0.33,1.64 0.73,3.24 2.37,3.57 1.61,0.34 3.23,-0.72 3.58,-2.36 12.72,-62.57 28.58,-100.12 48.66,-147.67 8.82,-20.88 17.93,-42.45 27.88,-68.72 0.59,-1.57 -0.2,-3.31 -1.77,-3.91 -0.34,-0.14 -0.71,-0.2 -1.07,-0.2" /><path
         id="path150"
         style="fill:#f7980f;fill-opacity:1;fill-rule:nonzero;stroke:none"
         d="m 3016.97,3930.64 c -0.2,0 -0.4,0.02 -0.6,0.06 -1.64,0.33 -2.71,1.93 -2.38,3.57 9.92,49.27 36.5,94.29 74.85,126.77 1.27,1.06 3.19,0.91 4.27,-0.36 1.08,-1.28 0.92,-3.19 -0.36,-4.28 -37.3,-31.59 -63.16,-75.39 -72.81,-123.33 -0.29,-1.44 -1.56,-2.43 -2.97,-2.43" /><path
         id="path152"
         style="fill:#cd6045;fill-opacity:1;fill-rule:nonzero;stroke:none"
         d="m 4122.15,3568.57 c -2.34,21.73 -7,40.21 -9.75,61.72 h -290.09 c -5.64,-18.51 14.03,-36.21 12.2,-49.62 -6.47,-47.47 33.45,-159.66 33.45,-159.66 l 10.62,-61.69 14.19,-233.89 c 0,0 -12.32,-114.35 -19.51,-204.97 -1.11,-13.95 -1.61,-27.6 -1.64,-41.03 -0.01,-3.61 0.21,-7.09 0.55,-10.48 2.04,-69.72 25,-134.42 26.16,-207.4 l 35.43,-8.62 c 0,0 13.57,120.21 27.55,226.48 v 0 0.01 c 2.36,17.98 4.74,35.52 7.07,52.05 -0.31,-3.68 -0.61,-7.39 -0.9,-11.01 -1.11,-13.95 -1.6,-27.6 -1.64,-41.03 -0.01,-3.61 0.21,-7.09 0.55,-10.48 2.05,-69.72 25.01,-134.42 26.16,-207.4 l 35.44,-8.62 c 0,0 13.56,120.21 27.55,226.48 h -0.01 v 0.01 c 10.01,76.04 20.23,144.95 25.86,157.55 8.76,19.63 24.52,189.41 40.99,308.84 v 0 c 6.58,45.53 4.58,178.08 -0.23,222.76" /><path
         id="path154"
         style="fill:#323161;fill-opacity:1;fill-rule:nonzero;stroke:none"
         d="m 3992.19,2672.72 -11.35,-61.74 h 125.86 l -69.13,30.87 -7.32,30.87 h -38.06" /><path
         id="path156"
         style="fill:#f3e0d0;fill-opacity:1;fill-rule:nonzero;stroke:none"
         d="m 3800.17,3743.26 c 0,0 -0.57,-110.35 9.38,-121.06 v 0 l 24.96,-41.53 287.64,-12.1 3.91,40.69 14.22,9.48 c 11.93,7.95 17.82,22.37 14.85,36.41 l -73.62,188.74 c 0,0 -4.86,59.87 -1.06,89 3.8,29.12 -66.34,188.5 -79.82,206.31 -13.49,17.79 -66.89,21.03 -89.54,0 -22.66,-21.04 -84.19,-113.26 -89.41,-132.68 -5.23,-19.41 -21.51,-263.26 -21.51,-263.26" /><path
         id="path158"
         style="fill:#f3e0d0;fill-opacity:1;fill-rule:nonzero;stroke:none"
         d="m 3933.13,4156.81 c -29.97,-7.25 -159.63,-82.46 -171.76,-106.72 -12.12,-24.25 -110.65,-286.95 -75.79,-316.27 34.87,-29.33 142.49,13.5 142.49,13.5 l 14.29,155.74 90.77,253.75" /><path
         id="path160"
         style="fill:#7a4047;fill-opacity:1;fill-rule:nonzero;stroke:none"
         d="m 3999.61,3448.91 c -0.85,0 -1.7,0.35 -2.3,1.05 -15.2,17.72 -25.01,40.26 -27.6,63.49 -0.19,1.65 1.01,3.16 2.68,3.33 1.58,0.21 3.16,-1.01 3.34,-2.67 2.46,-22.02 11.76,-43.4 26.18,-60.19 1.09,-1.28 0.95,-3.19 -0.32,-4.28 -0.58,-0.5 -1.28,-0.73 -1.98,-0.73" /><path
         id="path162"
         style="fill:#323161;fill-opacity:1;fill-rule:nonzero;stroke:none"
         d="m 3897.97,2672.72 -11.36,-61.74 h 125.87 l -69.13,30.87 -7.32,30.87 h -38.06" /><path
         id="path164"
         style="fill:#7a4047;fill-opacity:1;fill-rule:nonzero;stroke:none"
         d="m 3974.8,2949.49 c -0.23,0 -0.48,0.02 -0.72,0.08 -1.63,0.4 -2.62,2.05 -2.23,3.67 0.66,2.63 64.73,262.78 75.76,311.88 10.94,48.76 4.96,253.67 4.9,255.73 -0.02,0.8 0.27,1.58 0.83,2.18 l 30.85,32.7 c 1.14,1.21 3.05,1.28 4.29,0.12 1.21,-1.15 1.26,-3.06 0.11,-4.28 l -29.98,-31.79 c 0.54,-18.97 5.7,-207.96 -5.08,-255.99 -11.05,-49.17 -75.14,-309.37 -75.78,-311.99 -0.34,-1.39 -1.59,-2.31 -2.95,-2.31" /><path
         id="path166"
         style="fill:#d9ab8f;fill-opacity:1;fill-rule:nonzero;stroke:none"
         d="m 3842.36,3602.81 c -1.67,0 -3.02,1.35 -3.03,3.02 -0.01,1.67 1.34,3.03 3.02,3.04 l 268.29,1.54 h 0.02 c 1.67,0 3.02,-1.35 3.03,-3.02 0.01,-1.67 -1.34,-3.03 -3.02,-3.04 l -268.3,-1.54 h -0.01" /><path
         id="path168"
         style="fill:#f4735a;fill-opacity:1;fill-rule:nonzero;stroke:none"
         d="m 4355.97,4327.5 5.89,31.21 c 0,0 23.93,22.28 28.86,25.97 4.92,3.69 20.31,41.86 21.54,45.55 1.23,3.69 -28.31,5.54 -28.31,5.54 0,0 -0.86,18.28 -2.39,24.16 -0.82,3.19 -7.58,17.49 -10.61,7.8 l -6.57,-28.21 -9.36,-9.29 c -4.85,-6.71 -10.47,-35.09 -10.47,-35.09 l -19.34,-40.48 c 10.34,-8.95 20.57,-18.03 30.76,-27.16" /><path
         id="path170"
         style="fill:#f3e0d0;fill-opacity:1;fill-rule:nonzero;stroke:none"
         d="m 4440.04,4618.14 -47.48,-150.37 -18.58,-68.7 17.25,-1.77 57.15,215.91 c -4.17,2.45 -4.1,2.57 -8.34,4.93" /><path
         id="path172"
         style="fill:#f4735a;fill-opacity:1;fill-rule:nonzero;stroke:none"
         d="m 4412.26,4430.23 c 3.41,7.78 -4.17,31.91 -7.2,29.7 -3.03,-2.22 -4.24,-14.78 -4.24,-14.78 l 2.9,-7.43 c 0,0 -4.98,1.8 -5.23,0.04 -0.25,-1.77 -2.02,-10.11 -2.02,-10.11 l -0.8,-15.98 16.59,18.56" /><path
         id="path174"
         style="fill:#f3e0d0;fill-opacity:1;fill-rule:nonzero;stroke:none"
         d="m 4122.35,3975.82 c 30.79,31.2 115.81,106.33 143.22,144.75 25.92,36.31 103.7,215.42 103.7,215.42 l -42.77,41.44 -124.21,-174.55 c 0,0 -88.06,-54.33 -135.31,-74.05 28.7,-52.12 23.58,-102.72 55.37,-153.01" /><path
         id="path176"
         style="fill:#f3e0d0;fill-opacity:1;fill-rule:nonzero;stroke:none"
         d="m 3958.42,4153.75 c 242.02,-16.35 254.84,-37.73 188.42,-114.64 l -36.19,-291.79 -85.23,125.29 -67,281.14" /><path
         id="path178"
         style="fill:#f03f4d;fill-opacity:1;fill-rule:nonzero;stroke:none"
         d="m 3945.28,3889.72 40.89,34.56 -40.89,-105.8 -40.68,-8.59 40.68,79.83" /><path
         id="path180"
         style="fill:#f03f4d;fill-opacity:1;fill-rule:nonzero;stroke:none"
         d="m 3863.91,3848.04 14.52,64.38 66.85,-22.7 -47.72,-93.64 -33.65,51.96" /><path
         id="path182"
         style="fill:#f4735a;fill-opacity:1;fill-rule:nonzero;stroke:none"
         d="m 3802.13,3810.76 27.15,24.81 c 0,0 21.62,30.07 30.63,32.45 l 4,-19.98 c 0,0 65.81,8.9 67.45,6.15 1.64,-2.75 9.05,-15.19 9.05,-15.19 l -19.79,-6.87 c 0,0 7.33,-7.58 6.49,-10.89 -0.84,-3.3 -4.06,-7.33 -4.06,-7.33 0,0 2.87,-8.36 3.05,-16.91 0.17,-8.55 -15.92,-0.79 -19.15,-8.33 -3.23,-7.55 -50.61,-12.8 -57.3,-12.81 -6.7,0 -67.58,-15.03 -67.58,-15.03 l 20.06,49.93" /><path
         id="path184"
         style="fill:#d9ab8f;fill-opacity:1;fill-rule:nonzero;stroke:none"
         d="m 3796.28,3818.78 c -0.07,0 -0.14,0 -0.21,0 l -40.94,2.95 c -1.67,0.13 -2.92,1.58 -2.81,3.25 0.11,1.66 1.54,3 3.24,2.8 l 40.94,-2.95 c 1.67,-0.12 2.92,-1.57 2.8,-3.24 -0.1,-1.59 -1.44,-2.81 -3.02,-2.81" /><path
         id="path186"
         style="fill:#d9ab8f;fill-opacity:1;fill-rule:nonzero;stroke:none"
         d="m 3781.91,3820.85 c -0.41,0 -0.82,0.08 -1.22,0.25 -1.53,0.67 -2.23,2.46 -1.55,3.99 23.42,53.48 40.74,109.69 51.5,167.08 2.01,10.75 3.72,21.26 2.42,31.63 -1.38,11.22 -6.46,20.64 -13.95,25.82 -1.37,0.95 -1.71,2.84 -0.75,4.22 0.94,1.38 2.83,1.7 4.21,0.77 8.9,-6.17 14.91,-17.13 16.51,-30.06 1.4,-11.24 -0.38,-22.26 -2.47,-33.49 -10.85,-57.85 -28.32,-114.51 -51.93,-168.39 -0.5,-1.15 -1.61,-1.82 -2.77,-1.82" /><path
         id="path188"
         style="fill:#d9ab8f;fill-opacity:1;fill-rule:nonzero;stroke:none"
         d="m 4097.69,3790.14 c -1.04,0 -2.07,0.55 -2.63,1.52 l -124.02,216.05 c -0.83,1.45 -0.33,3.3 1.12,4.13 1.43,0.83 3.31,0.34 4.13,-1.11 l 124.03,-216.05 c 0.83,-1.45 0.33,-3.3 -1.13,-4.14 -0.47,-0.27 -0.99,-0.4 -1.5,-0.4" /><path
         id="path190"
         style="fill:#f4735a;fill-opacity:1;fill-rule:nonzero;stroke:none"
         d="m 4028.17,4139.43 8.63,42.21 c 0,0 26.94,1.59 34.29,15.72 3.08,5.91 0.84,26.49 -7.57,57.41 -0.9,3.31 13.41,0.79 12.41,4.16 -1.94,6.55 -33.57,28.72 -35.68,41.34 -7.74,46.21 -15.36,56.72 -32.24,64.89 -37.52,18.15 -150.03,-10.96 -147.43,-63.56 2.59,-52.6 26.85,-74.46 74.19,-134.6 l -1.64,-10.19 c -5.26,-32.6 22.99,-60.75 55.57,-55.37 v 0 c 19.76,3.26 35.45,18.37 39.47,37.99" /><path
         id="path192"
         style="fill:#323161;fill-opacity:1;fill-rule:nonzero;stroke:none"
         d="m 3934.77,4167 11.78,55.79 c 0,0 -46.64,26.47 -26.59,52.53 20.05,26.06 79.6,-61.11 79.6,-61.11 l 5.25,12.95 -26.91,56.53 c 0,0 18.93,17.53 14.94,40.17 0,0 52.5,20.77 48.17,57.68 -4.32,36.92 -162.69,-19.04 -189.75,-50.21 -27.07,-31.17 14.27,-93.16 83.51,-164.33" /><path
         id="path194"
         style="fill:#323161;fill-opacity:1;fill-rule:nonzero;stroke:none"
         d="m 1089.56,1486.04 -168.931,-28.62 -168.926,28.62 -1.465,-821.06 h 38.973 l 129.777,734.29 11.797,-734.29 h 38.973 c 0,0 67.832,309.008 70.722,337.17 2.89,28.16 -10.1,115.03 -10.1,115.03 l 59.18,368.86" /><path
         id="path196"
         style="fill:#323161;fill-opacity:1;fill-rule:nonzero;stroke:none"
         d="m 788.082,2082.67 c 0,0 11.504,111.58 26.656,167.67 15.153,56.08 75.11,76.5 111.825,73.11 36.714,-3.39 106.167,-18.35 107.057,-104.09 0.9,-85.74 12.15,-142 12.15,-142 l -257.688,5.31" /><path
         id="path198"
         style="fill:#f3e0d0;fill-opacity:1;fill-rule:nonzero;stroke:none"
         d="m 801.934,1873.77 21.207,-139.1 c -55.684,-81.32 -85.2,-204.1 -100.524,-298.31 h 403.613 c -35.42,212 -115.15,297.44 -115.15,297.44 l 32.18,141.58 c 28.96,27.35 30.57,70.79 30.57,90.09 0,19.31 0,72.4 0,72.4 0,0 -128.709,62.75 -157.67,62.75 -28.957,0 -148.012,-56.31 -148.012,-56.31 v -77.23 c -9.652,-56.31 33.786,-93.31 33.786,-93.31" /><path
         id="path200"
         style="fill:#f14876;fill-opacity:1;fill-rule:nonzero;stroke:none"
         d="m 820.102,1501.44 10.984,570.93 c 0,0 -64.078,-16.05 -83.68,-34.5 -19.597,-18.44 -63.906,-350.82 -68.461,-450.87 -0.543,-11.94 12.653,-40.11 12.653,-40.11 -0.774,-13.68 -1.66,-28.97 -2.633,-45.45 h 131.137" /><path
         id="path202"
         style="fill:#323161;fill-opacity:1;fill-rule:nonzero;stroke:none"
         d="m 1042.18,1875.89 c -0.56,0 -1.12,0.15 -1.61,0.46 -1.42,0.89 -1.85,2.76 -0.96,4.18 19.79,31.59 22.97,72.51 8.32,106.78 -0.35,0.83 -0.33,1.78 0.1,2.58 2.31,4.48 4.47,9.29 6.63,14.1 2.24,4.96 4.47,9.91 6.87,14.53 0.77,1.49 2.6,2.05 4.08,1.3 1.48,-0.77 2.06,-2.6 1.29,-4.08 -2.34,-4.53 -4.52,-9.39 -6.71,-14.24 -2,-4.46 -4.02,-8.91 -6.14,-13.13 14.8,-35.79 11.27,-78.21 -9.3,-111.06 -0.58,-0.92 -1.57,-1.42 -2.57,-1.42" /><path
         id="path204"
         style="fill:#f4735a;fill-opacity:1;fill-rule:nonzero;stroke:none"
         d="m 890.285,2142.44 v -70.77 c 0,0 35.86,-60.61 68.793,-1.42 l -2.879,72.19 h -65.914" /><path
         id="path206"
         style="fill:#f4735a;fill-opacity:1;fill-rule:nonzero;stroke:none"
         d="m 904.73,2310.24 c -61.046,-8.01 -70.808,-78.55 -56.136,-134.28 10.949,-41.59 35.859,-83.6 75.027,-82.59 39.168,1.02 62.774,54.55 69.781,87.4 11.278,52.84 9.188,142.3 -88.672,129.47" /><path
         id="path208"
         style="fill:#f4735a;fill-opacity:1;fill-rule:nonzero;stroke:none"
         d="m 855.871,2191.37 c 0,0 -2.359,23.37 -21.211,15.58 -18.844,-7.8 4.149,-60.45 25.133,-54.41 20.988,6.05 -3.922,38.83 -3.922,38.83" /><path
         id="path210"
         style="fill:#f4735a;fill-opacity:1;fill-rule:nonzero;stroke:none"
         d="m 981.262,2192.55 c 0,0 0.676,23.47 20.038,17.05 19.35,-6.42 0.2,-60.59 -21.163,-56.06 -21.367,4.52 1.125,39.01 1.125,39.01" /><path
         id="path212"
         style="fill:#323161;fill-opacity:1;fill-rule:nonzero;stroke:none"
         d="m 987.633,2292.78 c -4.832,2.14 -10.02,3 -15.313,3.22 -1.375,3.88 -3.668,6.97 -7.226,8.9 -21.309,11.56 -71.871,9.78 -94.043,0 -22.18,-9.78 -47.926,-50.58 -53.754,-74.11 -6.195,-25.02 0.008,-51.25 6.199,-76.27 1.781,-7.2 4.156,-15.2 10.66,-18.75 5.504,-3 12.274,-1.83 18.348,-0.27 34.113,8.73 65.691,27.16 90.078,52.56 3.496,3.64 6.84,7.54 9.879,11.64 0.019,-0.05 0.027,-0.1 0.047,-0.15 8.43,-23.39 23.355,-44.39 42.672,-60.05 2.175,-1.76 4.664,-3.55 7.46,-3.43 4.46,0.18 7.17,4.85 9.03,8.91 6.89,15.08 13.91,30.66 14.46,47.24 0.54,16.57 -23.34,93.84 -38.497,100.56" /><path
         id="path214"
         style="fill:#d06350;fill-opacity:1;fill-rule:nonzero;stroke:none"
         d="m 923.898,2090.36 c -9.273,0 -18.535,2.36 -26.597,7.11 -1.446,0.84 -1.918,2.7 -1.078,4.15 0.851,1.44 2.711,1.93 4.156,1.07 14.957,-8.8 35.41,-8.11 49.75,1.63 1.375,0.93 3.258,0.59 4.215,-0.8 0.937,-1.39 0.582,-3.27 -0.805,-4.21 -8.726,-5.95 -19.184,-8.95 -29.641,-8.95" /><path
         id="path216"
         style="fill:#f14876;fill-opacity:1;fill-rule:nonzero;stroke:none"
         d="m 1132.27,1501.44 c -0.78,13.22 -1.5,25.67 -2.16,37.14 0,0 8.73,36.45 8.12,49.94 -4.56,100.04 -44.8,430.91 -64.4,449.35 -19.6,18.45 -75.756,34.75 -75.756,34.75 l 6.636,-571.18 h 127.56" /><path
         id="path218"
         style="fill:#f14876;fill-opacity:1;fill-rule:nonzero;stroke:none"
         d="m 1073.83,2037.87 c 20.11,-13.76 33.05,-51.45 42.15,-82.44 9.09,-30.99 93.09,-116.54 82.47,-146.85 -10.61,-30.32 -13.48,-32.69 -1.36,-70.59 12.13,-37.89 -59.89,-46.01 -88.69,-38.16 -28.8,7.85 -92.17,46.85 -92.17,46.85 l -2.54,60.28 31.26,-4.39 28.88,235.3" /><path
         id="path220"
         style="fill:#f14876;fill-opacity:1;fill-rule:nonzero;stroke:none"
         d="m 747.406,2037.87 c -20.109,-13.76 -32.035,-51.45 -41.129,-82.44 -9.093,-30.99 -93.086,-116.54 -82.476,-146.85 10.609,-30.32 13.492,-32.69 1.363,-70.59 -12.125,-37.89 59.891,-46.01 88.691,-38.16 28.801,7.85 92.172,46.85 92.172,46.85 l 2.539,60.28 -31.265,-4.39 -29.895,235.3" /><path
         id="path222"
         style="fill:#f3e0d0;fill-opacity:1;fill-rule:nonzero;stroke:none"
         d="m 789.207,664.98 -12.125,-49.32 h -67.898 l 33.949,24.66 7.105,24.66 h 38.969" /><path
         id="path224"
         style="fill:#f3e0d0;fill-opacity:1;fill-rule:nonzero;stroke:none"
         d="m 930.785,664.98 v -49.32 h 67.899 l -33.95,24.66 5.024,24.66 h -38.973" /><path
         id="path226"
         style="fill:#323161;fill-opacity:1;fill-rule:nonzero;stroke:none"
         d="m 739.91,1796.41 10.328,164.44 h 291.942 l 9.84,-192.36 H 739.91 v 27.92" /><path
         id="path228"
         style="fill:#433f92;fill-opacity:1;fill-rule:nonzero;stroke:none"
         d="m 898.344,1887.07 c -2.547,0 -4.938,-0.48 -7.129,-1.42 -6.051,-2.62 -10.574,-8.5 -11.535,-15 -0.7,-4.7 0.39,-9.65 3.019,-13.62 3.457,-5.24 9.864,-8.49 16.723,-8.49 3.375,0 6.582,0.83 9.281,2.4 8.457,4.9 12.024,16.87 7.617,25.6 -3.175,6.3 -10.398,10.53 -17.976,10.53 z m 1.078,-44.59 c -8.859,0 -17.207,4.29 -21.789,11.22 -3.438,5.19 -4.867,11.69 -3.945,17.84 1.253,8.52 7.187,16.25 15.109,19.67 2.961,1.28 6.172,1.93 9.547,1.93 9.816,0 19.219,-5.58 23.398,-13.88 5.863,-11.64 1.293,-27.02 -10.008,-33.57 -3.609,-2.1 -7.875,-3.21 -12.312,-3.21" /><path
         id="path230"
         style="fill:#f4735a;fill-opacity:1;fill-rule:nonzero;stroke:none"
         d="m 1103.12,1806.96 c 0,0 -15.49,30.17 -24.81,29.97 l -11.91,-27.57 c 0,0 -50.55,9.27 -51.37,6.17 -0.81,-3.1 -4.48,-17.11 -4.48,-17.11 l 20.91,-1.12 c 0,0 -4.94,-9.3 -3.22,-12.25 1.72,-2.95 5.93,-5.92 5.93,-5.92 0,0 -0.44,-8.83 1.76,-17.1 2.19,-8.27 0.35,-15.29 5.54,-21.64 5.2,-6.35 52.18,1.72 58.61,3.56 0.43,0.13 1.06,0.39 1.85,0.77 25.74,12.27 26.36,48.82 1.19,62.24 v 0" /><path
         id="path232"
         style="fill:#f4735a;fill-opacity:1;fill-rule:nonzero;stroke:none"
         d="m 703.184,1794.02 c 0,0 15.496,30.16 24.816,29.96 l 11.91,-27.57 c 0,0 50.551,9.27 51.363,6.17 0.813,-3.1 4.489,-17.1 4.489,-17.1 l -20.914,-1.12 c 0,0 4.937,-9.31 3.218,-12.26 -1.722,-2.95 -5.933,-5.92 -5.933,-5.92 0,0 0.445,-8.83 -1.75,-17.09 -2.199,-8.27 -0.356,-15.29 -5.551,-21.65 -5.191,-6.35 -52.172,1.72 -58.605,3.56 -0.43,0.13 -1.055,0.39 -1.852,0.77 -25.738,12.27 -26.352,48.83 -1.191,62.25 v 0" /><path
         id="path234"
         style="fill:#e33766;fill-opacity:1;fill-rule:nonzero;stroke:none"
         d="m 695.004,1794.75 c -1.043,0 -2.063,0.55 -2.633,1.52 -5.586,9.71 -12.254,18.81 -19.808,27.03 -1.125,1.23 -1.043,3.15 0.187,4.28 1.242,1.12 3.152,1.05 4.277,-0.19 7.864,-8.54 14.789,-17.99 20.606,-28.1 0.828,-1.45 0.332,-3.3 -1.113,-4.14 -0.489,-0.27 -0.997,-0.4 -1.516,-0.4" /><path
         id="path236"
         style="fill:#e33766;fill-opacity:1;fill-rule:nonzero;stroke:none"
         d="m 1102.29,1818.26 c -0.31,0 -0.62,0.05 -0.93,0.15 -1.58,0.5 -2.47,2.21 -1.96,3.8 3.06,9.63 9.77,18.16 18.4,23.4 1.45,0.85 3.29,0.42 4.17,-1.02 0.86,-1.43 0.41,-3.29 -1.02,-4.16 -7.4,-4.5 -13.14,-11.8 -15.77,-20.05 -0.42,-1.29 -1.6,-2.12 -2.89,-2.12" /><path
         id="path238"
         style="fill:#e33766;fill-opacity:1;fill-rule:nonzero;stroke:none"
         d="m 795.707,1533.43 c -0.047,0 -0.082,0 -0.129,0 -30.152,1.29 -60.785,3.15 -91.066,5.51 -1.668,0.13 -2.914,1.58 -2.785,3.25 0.132,1.66 1.328,3.13 3.257,2.79 30.211,-2.35 60.774,-4.19 90.856,-5.49 1.668,-0.07 2.969,-1.49 2.898,-3.16 -0.07,-1.62 -1.41,-2.9 -3.031,-2.9" /><path
         id="path240"
         style="fill:#e33766;fill-opacity:1;fill-rule:nonzero;stroke:none"
         d="m 1019.94,1535.56 c -1.59,0 -2.92,1.22 -3.02,2.83 -0.12,1.67 1.15,3.12 2.82,3.22 29.99,2.06 60.45,2.28 90.56,0.7 1.69,-0.09 2.96,-1.51 2.88,-3.2 -0.09,-1.65 -1.15,-2.99 -3.2,-2.86 -29.84,1.6 -60.09,1.34 -89.84,-0.68 -0.06,-0.01 -0.13,-0.01 -0.2,-0.01" /><path
         id="path242"
         style="fill:#e33766;fill-opacity:1;fill-rule:nonzero;stroke:none"
         d="m 697.121,1698.69 c -1.621,0 -2.973,1.28 -3.031,2.91 -0.059,1.68 1.246,3.08 2.914,3.15 9.234,0.34 18.309,5.67 23.141,13.54 0.863,1.45 2.734,1.88 4.168,1.01 1.417,-0.88 1.871,-2.74 0.992,-4.17 -5.946,-9.7 -16.696,-16 -28.067,-16.44 -0.047,0 -0.082,0 -0.117,0" /><path
         id="path244"
         style="fill:#e33766;fill-opacity:1;fill-rule:nonzero;stroke:none"
         d="m 1121.66,1704.67 c -0.51,0 -1.03,0.13 -1.5,0.4 -12.83,7.32 -24.22,17.48 -32.96,29.39 -0.99,1.35 -0.7,3.24 0.64,4.24 1.35,0.99 3.24,0.7 4.24,-0.65 8.25,-11.23 18.99,-20.82 31.08,-27.72 1.46,-0.83 1.96,-2.68 1.13,-4.13 -0.56,-0.99 -1.58,-1.53 -2.63,-1.53" /><path
         id="path246"
         style="fill:#e33766;fill-opacity:1;fill-rule:nonzero;stroke:none"
         d="m 1131.04,1749.06 c -0.34,0 -0.69,0.06 -1.03,0.17 -1.58,0.57 -2.39,2.31 -1.82,3.88 5.6,15.61 2.65,34.16 -7.52,47.27 -1.03,1.32 -0.8,3.22 0.53,4.25 1.31,1.03 3.22,0.8 4.25,-0.54 11.42,-14.69 14.73,-35.51 8.44,-53.02 -0.45,-1.24 -1.61,-2.01 -2.85,-2.01" /><path
         id="path248"
         style="fill:#e33766;fill-opacity:1;fill-rule:nonzero;stroke:none"
         d="m 679.121,1740.96 c -1.027,0 -2.047,0.54 -2.617,1.5 -8.809,14.95 -7.625,35.05 2.867,48.89 1.008,1.32 2.902,1.59 4.25,0.58 1.328,-1.02 1.59,-2.92 0.582,-4.25 -9.047,-11.92 -10.066,-29.26 -2.465,-42.15 0.84,-1.44 0.367,-3.3 -1.078,-4.15 -0.484,-0.28 -1.015,-0.42 -1.539,-0.42" /><path
         id="path250"
         style="fill:#d9ab8f;fill-opacity:1;fill-rule:nonzero;stroke:none"
         d="m 950.199,1537.55 c -0.863,0 -1.726,0.37 -2.332,1.09 -44.242,53.15 -73.258,117.37 -83.914,185.72 -0.262,1.66 0.875,3.2 2.535,3.47 1.61,0.24 3.196,-0.88 3.457,-2.53 10.481,-67.28 39.043,-130.48 82.586,-182.77 1.067,-1.29 0.891,-3.2 -0.39,-4.28 -0.567,-0.47 -1.254,-0.7 -1.942,-0.7" /><path
         id="path252"
         style="fill:#323161;fill-opacity:1;fill-rule:nonzero;stroke:none"
         d="m 1544.23,2196.46 c -26.99,-80.72 -25.23,-171.81 10.43,-249.08 35.67,-77.28 106.27,-138.93 189.17,-158.21 48.42,-11.27 100.79,-7.98 145.76,13.21 44.97,21.19 81.7,61.01 95.28,108.82 13.57,47.82 2.25,102.89 -32.06,138.86 -25.72,26.97 -62.4,42.62 -84.56,72.59 -38.01,51.38 -22.18,128.61 -60,180.14 -34.67,47.25 -106.71,55.5 -159,29.05 -52.29,-26.46 -86.44,-79.8 -105.02,-135.38" /><path
         id="path254"
         style="fill:#f3e0d0;fill-opacity:1;fill-rule:nonzero;stroke:none"
         d="m 1966.26,653.262 v 0 c 0,0 75.71,-29.223 76.55,-35.903 h -112.85 l -7.78,70.973 44.08,-35.07" /><path
         id="path256"
         style="fill:#f3e0d0;fill-opacity:1;fill-rule:nonzero;stroke:none"
         d="m 1457.66,816.262 -27.02,-22.352 c 0,0 3.87,-74.48 -0.74,-79.379 l -57.79,93.801 57.87,41.379 27.68,-33.449" /><path
         id="path258"
         style="fill:#f4735a;fill-opacity:1;fill-rule:nonzero;stroke:none"
         d="m 1753.3,1224.63 c 0,0 -19.78,-176.81 -23.55,-183.61 -3.76,-6.8 -299.11,-247.11 -299.11,-247.11 l -22.06,40.5 209.09,297.28 -30.13,352.48 165.76,-259.54" /><path
         id="path260"
         style="fill:#f4735a;fill-opacity:1;fill-rule:nonzero;stroke:none"
         d="m 1580.54,1672.1 c 74.75,-7.6 150.44,-13.67 215.84,-47.31 l -17.8,-57.88 c 0,0 102.81,-298.08 106.58,-323.02 3.77,-24.93 81.1,-590.628 81.1,-590.628 l -40.82,5.308 -172.14,552.68 c 0,0 -215.68,255.92 -205.32,356.79 4.65,45.28 18.59,79.74 32.56,104.06" /><path
         id="path262"
         style="fill:#f14876;fill-opacity:1;fill-rule:nonzero;stroke:none"
         d="m 1849.53,1357.8 c -31,93.29 -70.95,209.11 -70.95,209.11 l 17.8,57.88 c -65.4,33.64 -141.09,39.72 -215.84,47.31 -13.97,-24.32 -27.91,-58.78 -32.56,-104.06 -3.25,-31.62 15.76,-78.47 43.32,-127.89 l 13.19,-154.2 c 26.21,3.93 52.16,9.42 77.88,15.98 0.04,-0.05 0.07,-0.09 0.1,-0.13 2.9,0.74 5.76,1.65 8.65,2.42 3.24,0.86 6.49,1.66 9.72,2.55 l -0.09,0.15 c 25.24,6.95 50.32,14.59 75.1,23.01 24.55,8.35 49.06,18.13 73.68,27.87" /><path
         id="path264"
         style="fill:#f4735a;fill-opacity:1;fill-rule:nonzero;stroke:none"
         d="m 1743.16,2028.15 c 0,0 -9.12,81.45 5.73,94.55 9.68,8.53 41.88,-4.82 50.88,8.7 2.71,4.07 -2.28,34.64 -4.29,55.05 -0.51,5.15 15.43,-1.14 14.65,4.51 -0.92,6.61 -27.59,33.55 -26.72,40.62 13.54,109.79 -168.47,112.82 -173.44,27.14 -3.1,-53.62 22.64,-108.11 73.12,-137.79 l -29.73,-57.12 89.8,-35.66" /><path
         id="path266"
         style="fill:#f4735a;fill-opacity:1;fill-rule:nonzero;stroke:none"
         d="m 1794.02,1830.17 79.73,-129.05 c 0,0 170.93,-85.72 180.97,-89.15 10.04,-3.43 60.99,-46.5 67.14,-56.62 6.16,-10.11 -19.28,-14.22 -24.08,-14.18 -4.79,0.03 -20.07,6.86 -20.07,6.86 0,0 -30.35,-18.45 -31.78,-17.96 -1.44,0.49 -21.7,44.27 -21.7,44.27 0,0 -199.27,50.81 -214.95,63.93 -15.68,13.12 -77.57,162.49 -77.57,162.49 l 62.31,29.41" /><path
         id="path268"
         style="fill:#fac017;fill-opacity:1;fill-rule:nonzero;stroke:none"
         d="m 1788.91,1861.04 80.38,-170.69 c 0,0 77.74,16.46 105.1,-18.25 27.36,-34.7 57.68,-49.55 57.68,-49.55 l -7.84,-48.21 c 0,0 -197.64,17.65 -227.83,50.43 -30.18,32.77 -28.16,210.81 -28.16,210.81 l 20.67,25.46" /><path
         id="path270"
         style="fill:#f3e0d0;fill-opacity:1;fill-rule:nonzero;stroke:none"
         d="m 1744.17,2026.14 20.88,37.4 -81.96,57.39 -28.27,-42.45 89.35,-52.34" /><path
         id="path272"
         style="fill:#fac017;fill-opacity:1;fill-rule:nonzero;stroke:none"
         d="m 1594.22,2032.98 c 0,0 51.26,72.05 106.95,46.96 13.88,-6.25 122.62,-147.08 124.74,-170.88 2.11,-23.8 -43.21,-106.21 -43.21,-106.21 l 46.74,-278.61 -319.9,88.4 70.82,171.23 c 0,0 -22.49,93.42 13.86,249.11" /><path
         id="path274"
         style="fill:#e33766;fill-opacity:1;fill-rule:nonzero;stroke:none"
         d="m 1659.97,1333.38 c -0.94,0 -1.87,0.44 -2.46,1.27 -21.62,30.19 -40.96,57.54 -58.73,86.31 -0.87,1.42 -0.43,3.3 1,4.17 1.4,0.88 3.28,0.44 4.17,-0.99 17.65,-28.6 36.93,-55.85 58.49,-85.96 0.97,-1.37 0.66,-3.26 -0.7,-4.23 -0.54,-0.38 -1.15,-0.57 -1.77,-0.57" /><path
         id="path276"
         style="fill:#f4735a;fill-opacity:1;fill-rule:nonzero;stroke:none"
         d="m 2513.19,2070.04 18.03,69.31 c 0,0 26.05,-7.05 37.51,4.02 4.8,4.63 9.2,24.85 11.05,56.85 0.19,3.42 12.96,-3.51 13.08,0 0.24,6.83 -22.71,37.89 -20.71,50.53 7.32,46.28 3.44,58.66 -9.97,71.77 -29.82,29.12 -134.25,33.38 -148.49,-17.32 -14.24,-50.71 -9.67,-75.29 16.13,-147.35 l -15.78,-71.88 99.15,-15.93" /><path
         id="path278"
         style="fill:#f3e0d0;fill-opacity:1;fill-rule:nonzero;stroke:none"
         d="m 2770.39,746.051 26.7,-80.43 c 0,0 82.3,-4.973 84.63,-10.621 l -118.42,-32.418 -30.92,113.066 38.01,10.403" /><path
         id="path280"
         style="fill:#f3e0d0;fill-opacity:1;fill-rule:nonzero;stroke:none"
         d="m 2145.9,615.66 h -67.84 l -49.19,38.02 61.02,100.082 33.66,-20.512 -40.19,-74.621 12.52,-29.828 50.02,-13.141" /><path
         id="path282"
         style="fill:#f4735a;fill-opacity:1;fill-rule:nonzero;stroke:none"
         d="m 2313.15,1136.45 c -26.16,4.96 -33.56,4.32 -59.12,11.42 l -192.66,-440.89 35.23,-23.761 230.28,353.331 35.58,84.74 c -17.67,3.44 -31.42,11.77 -49.31,15.16" /><path
         id="path284"
         style="fill:#f4735a;fill-opacity:1;fill-rule:nonzero;stroke:none"
         d="m 2652.68,1168.28 c -39.96,-14.89 -48.86,-31.02 -90.03,-42.44 l 6.34,-29.51 178.91,-417.451 42.04,8.293 -137.26,481.108" /><path
         id="path286"
         style="fill:#435183;fill-opacity:1;fill-rule:nonzero;stroke:none"
         d="m 2679.61,1166.37 -82.72,321.67 h -307.06 l -54.39,-353.57 c 26.01,-7.22 52.13,-13.96 78.75,-19.06 18.55,-3.56 37.02,-6.64 55.32,-10.23 l 83.65,215.1 88.34,-206.37 c 42.62,11.67 96.79,37.03 138.11,52.46" /><path
         id="path288"
         style="fill:#75beeb;fill-opacity:1;fill-rule:nonzero;stroke:none"
         d="m 2412.16,2143.86 c 0,0 62.95,-19.75 94.58,-56.11 31.63,-36.36 82.66,-141.53 83.79,-153.33 1.14,-11.81 -15.87,-141.66 -15.87,-141.66 l 56.69,-344.07 c 0,0 -242.62,-37.56 -363.93,0 l 63.49,284.29 c 0,0 -9.07,100.02 -19.28,111.82 -10.2,11.81 7.94,111.08 15.88,157.23 7.93,46.15 44.21,98.73 56.68,109.46 12.47,10.74 27.97,32.37 27.97,32.37" /><path
         id="path290"
         style="fill:#75beeb;fill-opacity:1;fill-rule:nonzero;stroke:none"
         d="m 2432.78,2136.09 c -29.19,19.48 -131.25,23.01 -143.38,15.18 -12.13,-7.83 16.17,-32.59 13.14,-49.01 -3.03,-16.42 -62.66,-37.78 -42.45,-73.59 20.22,-35.8 79.84,-78.24 79.84,-78.24 l 92.85,185.66" /><path
         id="path292"
         style="fill:#3b487c;fill-opacity:1;fill-rule:nonzero;stroke:none"
         d="m 2462.19,1350.35 c -0.57,0 -1.13,0.15 -1.64,0.48 -1.4,0.9 -1.81,2.79 -0.9,4.2 l 33.97,52.79 c 0.91,1.41 2.8,1.82 4.19,0.9 1.4,-0.9 1.82,-2.78 0.9,-4.19 l -33.97,-52.8 c -0.58,-0.9 -1.55,-1.38 -2.55,-1.38" /><path
         id="path294"
         style="fill:#323161;fill-opacity:1;fill-rule:nonzero;stroke:none"
         d="m 2582.45,2386.02 c 0.45,-6.18 -2.17,-12.5 -6.85,-16.55 3.4,10.78 -7.6,22.12 -18.9,22.26 -11.3,0.14 -19.09,-6.49 -25.43,-15.86 2.78,4.95 11.32,3.62 13.7,-1.52 2.38,-5.15 -0.49,-11.56 -5.16,-14.76 -4.68,-3.2 -10.63,-3.85 -16.3,-3.78 -13.3,0.16 -26.3,3.67 -39.15,7.14 -12.84,3.46 -25.87,6.91 -39.17,6.93 -13.3,0.03 -27.12,-3.76 -36.65,-13.04 -9.53,-9.28 -12.84,-27.24 -6.6,-38.98 -33.36,-13.67 -10.26,-72 0,-97.77 10.26,-25.77 27.88,-62.24 27.88,-62.24 l 34.18,33.44 c 0,0 -26.09,30.31 -14.62,43.96 11.47,13.64 23.4,-7.58 23.4,-7.58 0,0 3.79,-64.42 12.78,-68.21 8.99,-3.79 61.49,-41.69 83.89,-33.35 22.41,8.34 10.33,74.11 10.33,74.11 l -32.96,3.81 c -30.21,3.5 -52.68,29.62 -51.63,60.02 v 0 c 0,0 35.76,-11.89 42.2,18.19 24.87,3.57 55,13.85 64.43,37.13 9.43,23.29 1.92,53.31 -19.37,66.65" /><path
         id="path296"
         style="fill:#f03f4d;fill-opacity:1;fill-rule:nonzero;stroke:none"
         d="m 2529.1,2356.09 c 0,0 -56.18,-128.39 -118.13,-157.38 0,0 -47.8,81.21 -46.79,117.56 1.01,36.35 27.28,59.59 68.71,62.62 41.44,3.03 96.21,-22.8 96.21,-22.8" /><path
         id="path298"
         style="fill:#f4735a;fill-opacity:1;fill-rule:nonzero;stroke:none"
         d="m 2133.12,1578.64 c -5.46,8.65 6.5,28.91 15.28,39.99 -6.97,11.56 -7.03,37.27 -12.99,49.42 -37.3,-65.45 -63.75,-92.45 -66.79,-101.25 -6.74,-19.48 -9.6,-30.49 6.41,-31.68 16.02,-1.18 6.9,-22.96 20.35,-21.51 13.46,1.45 6.8,-24.67 20.08,-17.31 13.29,7.37 11.8,38.64 11.8,38.64 0,0 26.83,10.49 5.86,43.7" /><path
         id="path300"
         style="fill:#75beeb;fill-opacity:1;fill-rule:nonzero;stroke:none"
         d="m 2366.59,2087.48 c -41.03,-21.57 -273.94,-464.27 -273.94,-464.27 l 60.24,-38.32 c 0,0 52.63,86.02 81.38,107.43 28.75,21.42 38.03,30.75 40.77,72.71 2.74,41.95 134.25,145.75 155.27,192.27 21.02,46.51 -35.26,145.14 -63.72,130.18" /><path
         id="path302"
         style="fill:#bc343e;fill-opacity:1;fill-rule:nonzero;stroke:none"
         d="m 2424.18,2234.81 c -0.73,0 -1.46,0.26 -2.04,0.79 -1.24,1.12 -1.32,3.04 -0.2,4.28 25.72,28.21 47.22,59.93 63.89,94.29 0.72,1.52 2.55,2.14 4.05,1.41 1.5,-0.74 2.13,-2.55 1.4,-4.05 -16.93,-34.89 -38.75,-67.1 -64.86,-95.73 -0.59,-0.66 -1.42,-0.99 -2.24,-0.99" /><path
         id="path304"
         style="fill:#549cda;fill-opacity:1;fill-rule:nonzero;stroke:none"
         d="m 2311.63,1841.77 c -1.43,0 -2.7,1.01 -2.97,2.46 -16.98,88.59 -5.8,208.12 76.5,277.92 1.29,1.07 3.2,0.94 4.28,-0.35 1.08,-1.27 0.92,-3.19 -0.35,-4.27 -80.31,-68.12 -91.14,-185.25 -74.49,-272.16 0.32,-1.64 -0.75,-3.23 -2.4,-3.55 -0.19,-0.03 -0.38,-0.05 -0.57,-0.05" /><path
         id="path306"
         style="fill:#75beeb;fill-opacity:1;fill-rule:nonzero;stroke:none"
         d="m 2614.35,1839.45 h -35.7 c 0,0 -86.22,200.47 -116.05,225.2 -29.82,24.73 -37.69,-209.92 11.59,-280.25 49.28,-70.34 60.8,-70.68 155.49,-33.33 94.68,37.35 -15.33,88.38 -15.33,88.38" /><path
         id="path308"
         style="fill:#f4735a;fill-opacity:1;fill-rule:nonzero;stroke:none"
         d="m 2896.25,1919.27 c 3.9,8.92 1.6,36.72 -1.88,34.19 -3.47,-2.54 -6.61,-18.08 -6.61,-18.08 l -1.3,-7.52 c 0,0 -5.7,2.06 -5.99,0.04 -0.29,-2.03 -2.31,-11.58 -2.31,-11.58 l -0.92,-18.3 19.01,21.25" /><path
         id="path310"
         style="fill:#f3e0d0;fill-opacity:1;fill-rule:nonzero;stroke:none"
         d="m 2852.41,1883.59 21.28,78.69 17.62,62.74 22.56,-8.46 -41.71,-135 -19.75,2.03" /><path
         id="path312"
         style="fill:#f4735a;fill-opacity:1;fill-rule:nonzero;stroke:none"
         d="m 2628.27,1837.35 18.03,-71.21 c 0,0 182.18,71.21 191.67,74.65 0,0 27.96,22.08 33.6,26.31 5.64,4.23 23.27,47.94 24.68,52.17 1.41,4.23 -32.43,6.35 -32.43,6.35 0,0 -0.99,20.94 -2.73,27.67 -0.95,3.65 -8.68,20.04 -12.16,8.94 l -7.52,-32.31 -10.73,-10.65 c -5.56,-7.68 -11.98,-40.18 -11.98,-40.18 l -190.43,-41.74" /><path
         id="path314"
         style="fill:#75beeb;fill-opacity:1;fill-rule:nonzero;stroke:none"
         d="m 2614.35,1839.45 c 0,0 19.07,53.87 54.94,32.01 35.88,-21.86 40.28,5.22 40.28,5.22 l 97,26.66 31.4,-62.55 -208.29,-89.72 -15.33,88.38" /><path
         id="path316"
         style="fill:#549cda;fill-opacity:1;fill-rule:nonzero;stroke:none"
         d="m 2532.35,1722.78 c -12.59,0 -25.87,4.63 -37.83,13.4 -14.1,10.33 -24.49,24.5 -33.93,38.13 -28,40.44 -52.75,83.54 -73.57,128.09 -13.6,29.12 -26.35,60.71 -27.55,94.34 -1.08,30.76 7.74,57.6 23.61,71.8 11.6,10.37 26.46,14.33 44.37,11.64 1.64,-0.25 2.79,-1.78 2.54,-3.44 -0.24,-1.65 -1.67,-2.8 -3.44,-2.55 -15.95,2.35 -29.24,-1.06 -39.42,-10.18 -14.56,-13 -22.62,-38.07 -21.59,-67.06 1.16,-32.55 13.65,-63.44 26.97,-91.98 20.67,-44.24 45.25,-87.04 73.07,-127.2 9.14,-13.21 19.18,-26.92 32.52,-36.7 14.21,-10.4 30.94,-14.5 44.73,-10.92 1.65,0.41 3.26,-0.56 3.69,-2.19 0.42,-1.61 -0.56,-3.27 -2.18,-3.68 -3.88,-1 -7.91,-1.5 -11.99,-1.5" /><path
         id="path318"
         style="fill:#549cda;fill-opacity:1;fill-rule:nonzero;stroke:none"
         d="m 2555.76,1856.8 c -0.07,0 -0.16,0 -0.23,0.01 -1.67,0.13 -2.92,1.58 -2.79,3.25 1.96,26.11 2.52,55.41 -15.99,72.55 -3.49,3.24 -7.47,5.84 -11.7,8.59 -3.69,2.4 -7.52,4.89 -10.99,7.86 -11.53,9.84 -18.27,23.88 -24.78,37.45 -7.62,15.87 -14.81,30.86 -28.92,38.92 -1.46,0.83 -1.96,2.68 -1.13,4.13 0.83,1.46 2.68,1.96 4.14,1.14 15.75,-9.01 23.69,-25.56 31.38,-41.57 6.23,-13 12.68,-26.45 23.24,-35.46 3.19,-2.71 6.67,-4.99 10.38,-7.39 4.24,-2.77 8.63,-5.63 12.5,-9.21 20.49,-18.99 19.99,-49.94 17.91,-77.47 -0.12,-1.59 -1.45,-2.8 -3.02,-2.8" /><path
         id="path320"
         style="fill:#f3e0d0;fill-opacity:1;fill-rule:nonzero;stroke:none"
         d="m 1801.04,1693.36 -298.49,63.49 -55.81,-217.79 304.71,-72.97 c 19.78,75.2 26.09,153.18 49.59,227.27" /><path
         id="path322"
         style="fill:#f4735a;fill-opacity:1;fill-rule:nonzero;stroke:none"
         d="m 1609.97,1523.4 c -7.07,7.39 0.62,29.63 7.02,42.22 -9.12,9.94 -14.3,35.13 -22.55,45.85 -23.54,-71.56 -44.09,-103.28 -45.32,-112.5 -2.73,-20.44 -3.35,-31.8 12.59,-29.78 15.93,2.03 11.32,-21.13 24.22,-17.03 12.9,4.1 11.56,-22.82 23.12,-12.97 11.56,9.86 3.87,40.21 3.87,40.21 0,0 24.21,15.61 -2.95,44" /><path
         id="path324"
         style="fill:#fac017;fill-opacity:1;fill-rule:nonzero;stroke:none"
         d="m 1594.22,2032.98 c -28.37,-36.66 -38.24,-491.15 -38.24,-491.15 l 70.72,-9.85 c 0,0 12.16,100.11 29.42,131.52 17.26,31.42 21.83,43.77 6.91,83.07 -14.93,39.3 43.4,143.39 43.21,194.43 -0.19,51.04 -92.34,117.4 -112.02,91.98" /><path
         id="path326"
         style="fill:#f7980f;fill-opacity:1;fill-rule:nonzero;stroke:none"
         d="m 1809.28,1635.23 c -1.47,0 -2.75,1.06 -3,2.55 l -26.58,164.58 c -0.09,0.56 -0.03,1.13 0.19,1.65 l 11.33,27.32 c 0.63,1.56 2.43,2.28 3.95,1.64 1.56,-0.64 2.29,-2.42 1.64,-3.96 l -10.99,-26.53 26.45,-163.73 c 0.26,-1.66 -0.86,-3.21 -2.51,-3.48 -0.16,-0.02 -0.33,-0.04 -0.48,-0.04" /><path
         id="path328"
         style="fill:#f7980f;fill-opacity:1;fill-rule:nonzero;stroke:none"
         d="m 1663.82,1759.54 c -0.09,0 -0.2,0.01 -0.29,0.01 -1.67,0.17 -2.89,1.65 -2.73,3.32 l 16.15,163.73 c 1.57,15.71 3.17,31.95 -0.35,47.46 -3.79,16.8 -13.7,29.92 -26.48,35.09 -1.55,0.64 -2.3,2.4 -1.67,3.95 0.63,1.56 2.4,2.3 3.94,1.68 14.63,-5.93 25.89,-20.65 30.13,-39.38 3.73,-16.47 2.07,-33.21 0.47,-49.39 l -16.15,-163.73 c -0.15,-1.57 -1.48,-2.74 -3.02,-2.74" /><path
         id="path330"
         style="fill:#d06350;fill-opacity:1;fill-rule:nonzero;stroke:none"
         d="m 1744.11,1219.35 c -0.93,0 -1.87,0.44 -2.46,1.26 l -50.26,69.73 c -0.97,1.37 -0.66,3.26 0.69,4.24 1.37,0.96 3.25,0.67 4.24,-0.68 l 50.25,-69.74 c 0.98,-1.36 0.67,-3.26 -0.68,-4.24 -0.55,-0.38 -1.16,-0.57 -1.78,-0.57" /><path
         id="path332"
         style="fill:#323161;fill-opacity:1;fill-rule:nonzero;stroke:none"
         d="m 1683.09,2120.93 c 87.17,51.98 126.19,137.39 126.19,137.39 l -41.07,60.57 c 0,0 -145.68,43.03 -182.97,-60.57 -37.29,-103.6 97.85,-137.39 97.85,-137.39" /><path
         id="path334"
         style="fill:#f4735a;fill-opacity:1;fill-rule:nonzero;stroke:none"
         d="m 3447.73,1518.79 -138.54,-23.48 -176.53,29.92 -1.53,-858.031 h 40.73 l 135.62,808.761 12.33,-808.761 h 40.72 c 0,0 45.55,322.93 48.57,352.351 3.01,29.42 14.78,120.21 14.78,120.21 l 23.85,379.03" /><path
         id="path336"
         style="fill:#323161;fill-opacity:1;fill-rule:nonzero;stroke:none"
         d="m 3343.29,2402.24 c -36.55,11.07 -76.75,7.13 -109.85,-14.94 -27.4,-18.27 -51.72,-41.93 -71.7,-68.87 -6.16,-8.3 -52.93,-77.55 -44.73,-86.1 49.5,-51.56 116.39,-82.43 185.14,-92.67 63.49,-10.9 129.24,1.02 192.09,9.99 -6.33,77.67 -35.22,158.53 -88.59,214.27 -17.5,18.27 -39.2,31.31 -62.36,38.32" /><path
         id="path338"
         style="fill:#f3e0d0;fill-opacity:1;fill-rule:nonzero;stroke:none"
         d="m 3185.16,1930.41 22.16,-145.36 c -58.2,-84.98 -89.04,-213.29 -127.6,-637.77 h 421.79 c -14.47,547.57 -97.79,636.86 -97.79,636.86 l 33.63,147.96 c 30.26,28.58 31.94,73.97 31.94,94.15 0,20.17 -8.72,82.38 -8.72,82.38 0,0 -125.78,58.84 -156.04,58.84 -30.27,0 -142.01,-58.84 -142.01,-58.84 l -12.67,-80.7 c -10.09,-58.85 35.31,-97.52 35.31,-97.52" /><path
         id="path340"
         style="fill:#f03f4d;fill-opacity:1;fill-rule:nonzero;stroke:none"
         d="m 3212.06,1972.75 c 1.38,-8.11 21.17,-231.99 21.17,-231.99 h 156.9 l 29.32,237.96 -207.39,-5.97" /><path
         id="path342"
         style="fill:#f3e0d0;fill-opacity:1;fill-rule:nonzero;stroke:none"
         d="m 3460.57,2108.63 c 31.66,-17.27 59.11,-117.86 61.22,-154.16 2.12,-36.29 -0.81,-194.34 -50.45,-198.92 -49.64,-4.58 -264.02,29.5 -264.02,29.5 l 4.74,51.34 207.93,19.34 16.22,174.38 24.36,78.52" /><path
         id="path344"
         style="fill:#f3e0d0;fill-opacity:1;fill-rule:nonzero;stroke:none"
         d="m 3162.52,2108.63 c -48.35,-25.71 -57.27,-167.45 -54.92,-215.91 2.35,-48.47 -13.24,-128.02 27.29,-130.48 40.53,-2.47 229.9,16.54 229.9,16.54 l 39.06,73.36 -182.12,17.42 -59.21,239.07" /><path
         id="path346"
         style="fill:#d9ab8f;fill-opacity:1;fill-rule:nonzero;stroke:none"
         d="m 3339.35,2018.39 c -0.21,0 -0.44,0.02 -0.66,0.07 -32.71,7.27 -63.22,26.64 -83.7,53.13 -1.03,1.32 -0.78,3.23 0.53,4.25 1.33,1.03 3.22,0.8 4.25,-0.54 19.65,-25.39 48.89,-43.95 80.24,-50.92 1.64,-0.37 2.67,-1.99 2.3,-3.62 -0.32,-1.42 -1.56,-2.37 -2.96,-2.37" /><path
         id="path348"
         style="fill:#d9ab8f;fill-opacity:1;fill-rule:nonzero;stroke:none"
         d="m 3436.22,1932.77 c -0.56,0 -1.11,0.14 -1.61,0.46 -1.42,0.89 -1.85,2.76 -0.96,4.18 20.7,33.05 24.03,75.86 8.7,111.71 -0.35,0.83 -0.33,1.78 0.1,2.58 2.43,4.71 4.7,9.76 6.97,14.81 2.32,5.15 4.64,10.3 7.13,15.11 0.77,1.49 2.61,2.06 4.09,1.3 1.48,-0.77 2.06,-2.6 1.29,-4.09 -2.43,-4.7 -4.7,-9.75 -6.98,-14.81 -2.12,-4.7 -4.24,-9.4 -6.47,-13.83 15.46,-37.38 11.79,-81.69 -9.69,-116 -0.58,-0.92 -1.56,-1.42 -2.57,-1.42" /><path
         id="path350"
         style="fill:#d9ab8f;fill-opacity:1;fill-rule:nonzero;stroke:none"
         d="m 3183.99,1932.77 c -1,0 -1.99,0.5 -2.57,1.42 -21.48,34.31 -25.15,78.62 -9.68,116 -2.24,4.43 -4.36,9.13 -6.48,13.83 -2.27,5.06 -4.55,10.11 -6.98,14.81 -0.77,1.49 -0.19,3.32 1.29,4.09 1.49,0.76 3.32,0.19 4.09,-1.3 2.49,-4.81 4.81,-9.96 7.13,-15.11 2.27,-5.05 4.55,-10.1 6.97,-14.81 0.43,-0.8 0.45,-1.75 0.1,-2.58 -15.32,-35.85 -12,-78.66 8.7,-111.71 0.89,-1.42 0.46,-3.29 -0.96,-4.18 -0.49,-0.32 -1.05,-0.46 -1.61,-0.46" /><path
         id="path352"
         style="fill:#f4735a;fill-opacity:1;fill-rule:nonzero;stroke:none"
         d="m 3277.49,2211.18 v -73.96 c 0,0 37.47,-63.33 71.88,-1.48 l -3,75.44 h -68.88" /><path
         id="path354"
         style="fill:#f4735a;fill-opacity:1;fill-rule:nonzero;stroke:none"
         d="m 3292.58,2386.53 c -63.8,-8.37 -74,-82.08 -58.67,-140.33 11.45,-43.46 37.48,-87.35 78.41,-86.3 40.93,1.06 65.6,57.01 72.93,91.33 11.78,55.23 9.59,148.71 -92.67,135.3" /><path
         id="path356"
         style="fill:#f4735a;fill-opacity:1;fill-rule:nonzero;stroke:none"
         d="m 3241.52,2262.32 c 0,0 -2.47,24.41 -22.16,16.27 -19.7,-8.15 4.33,-63.17 26.26,-56.85 21.93,6.32 -4.1,40.58 -4.1,40.58" /><path
         id="path358"
         style="fill:#f4735a;fill-opacity:1;fill-rule:nonzero;stroke:none"
         d="m 3372.56,2263.55 c 0,0 0.7,24.53 20.93,17.82 20.23,-6.72 0.22,-63.32 -22.11,-58.59 -22.33,4.73 1.18,40.77 1.18,40.77" /><path
         id="path360"
         style="fill:#323161;fill-opacity:1;fill-rule:nonzero;stroke:none"
         d="m 3379.22,2368.29 c -5.06,2.24 -10.48,3.13 -16.01,3.36 -1.43,4.05 -3.83,7.29 -7.55,9.3 -22.27,12.08 -75.1,10.23 -98.28,0 -23.17,-10.22 -50.08,-52.86 -56.17,-77.44 -6.47,-26.15 0.01,-53.56 6.48,-79.71 1.86,-7.52 4.34,-15.88 11.14,-19.59 24.83,-13.54 66.25,27.31 81.22,42.75 23.1,23.84 40.69,53.1 50.3,84.91 -8.21,-27.18 -0.43,-129.18 44.55,-127.35 4.66,0.19 7.49,5.07 9.43,9.31 7.2,15.76 14.54,32.05 15.11,49.37 0.57,17.32 -24.38,98.06 -40.22,105.09" /><path
         id="path362"
         style="fill:#d06350;fill-opacity:1;fill-rule:nonzero;stroke:none"
         d="m 3312.6,2156.89 c -9.66,0 -19.32,2.46 -27.72,7.41 -1.45,0.84 -1.92,2.7 -1.08,4.15 0.85,1.44 2.7,1.93 4.16,1.07 15.64,-9.22 37.1,-8.52 52.14,1.71 1.37,0.94 3.25,0.58 4.21,-0.8 0.94,-1.39 0.58,-3.27 -0.8,-4.21 -9.11,-6.2 -20.02,-9.33 -30.91,-9.33" /><path
         id="path364"
         style="fill:#f3e0d0;fill-opacity:1;fill-rule:nonzero;stroke:none"
         d="m 3171.86,667.199 -12.68,-51.539 h -70.95 l 35.48,25.77 7.42,25.769 h 40.73" /><path
         id="path366"
         style="fill:#f3e0d0;fill-opacity:1;fill-rule:nonzero;stroke:none"
         d="M 3319.81,667.199 V 615.66 h 70.95 l -35.47,25.77 5.24,25.769 h -40.72" /><path
         id="path368"
         style="fill:#f4735a;fill-opacity:1;fill-rule:nonzero;stroke:none"
         d="m 3336.23,1858.61 c 0,0 19.77,-41.55 20.56,-39.17 0.79,2.37 47.06,32.7 47.06,32.7 0,0 20.69,16.25 12.34,24.32 -8.35,8.07 5.56,22.97 1.99,28.51 -3.57,5.55 -5.66,17.49 -5.66,17.49 l -8.67,-23.03 -26.35,-3.17 c 0,0 -0.12,23.1 -5.66,26.2 -5.54,3.11 -12.67,-41.25 -12.67,-41.25 l -22.94,-22.6" /><path
         id="path370"
         style="fill:#f03f4d;fill-opacity:1;fill-rule:nonzero;stroke:none"
         d="m 3949.36,2034.31 c -19.61,-45.86 -86.87,-54.22 -109.05,-98.89 -14.91,-30.01 -3.3,-68.06 20.02,-92.13 23.31,-24.07 55.94,-36.66 88.26,-45.53 72.04,-19.78 149.69,-24.33 221.09,-2.37 25.6,7.87 50.56,19.32 70.51,37.18 19.96,17.85 34.56,42.7 36.25,69.43 1.68,26.72 -11.09,54.86 -34.47,67.92 -14.16,7.92 -31.48,10.34 -43.55,21.17 -17.88,16.03 -17.58,43.54 -16.91,67.54 1.24,44.76 -1.04,89.61 -6.82,134.01 -4.45,34.25 -11.89,70.13 -35.05,95.76 -25.28,27.97 -67.01,38.59 -103.57,29.37 -36.56,-9.22 -67.27,-36.7 -83.8,-70.59 -16.52,-33.89 -19.5,-73.52 -11.87,-110.45 7.06,-34.2 22.69,-70.3 8.96,-102.42" /><path
         id="path372"
         style="fill:#f4735a;fill-opacity:1;fill-rule:nonzero;stroke:none"
         d="m 3874.88,1228.91 -0.43,-88.39 c 0,0 -36.14,-123.26 -40.76,-151.411 -3.74,-22.808 -9.73,-226.718 -11.87,-303.359 -0.5,-17.969 38.18,-9.559 38.18,-9.559 l 2.35,9.571 190.81,776.948 4.26,-777.011 c 0,0 39.75,-18.82 44.05,0.051 17.79,78.051 63.7,280.691 66.03,303.359 2.89,28.151 -10.1,151.411 -10.1,151.411 l 19.87,88.41 -86.3,297.58 -216.09,-297.6" /><path
         id="path374"
         style="fill:#323161;fill-opacity:1;fill-rule:nonzero;stroke:none"
         d="m 3821.82,685.75 c -0.5,-17.949 -0.79,-28.941 -0.79,-28.941 l -61.5,-41.149 h 95.49 l 4.98,60.531 2.35,9.559 h -40.53" /><path
         id="path376"
         style="fill:#323161;fill-opacity:1;fill-rule:nonzero;stroke:none"
         d="m 4101.47,685.75 h -44.05 l 0.38,-70.09 h 88.25 l -51.53,39.629 c 0,0 2.67,11.652 6.95,30.461" /><path
         id="path378"
         style="fill:#f4735a;fill-opacity:1;fill-rule:nonzero;stroke:none"
         d="m 3907.29,2031.26 c -31.61,-19.47 -165.57,-169.4 -171.63,-187.59 -6.06,-18.19 157.39,-220.29 157.39,-220.29 l 23.49,40.81 -90.52,156.24 105.28,121.26 -24.01,89.57" /><path
         id="path380"
         style="fill:#f4735a;fill-opacity:1;fill-rule:nonzero;stroke:none"
         d="m 4212.97,2024.83 c 31.61,-19.47 157.93,-162.97 163.99,-181.16 6.06,-18.19 -157.39,-220.29 -157.39,-220.29 l -23.5,40.81 90.53,156.24 -105.28,121.26 31.65,83.14" /><path
         id="path382"
         style="fill:#323161;fill-opacity:1;fill-rule:nonzero;stroke:none"
         d="m 3875.68,1394 -0.8,-165.07 h 302.39 l 39.3,174.81 c 28.59,197.72 -66.34,317.02 -66.34,317.02 l 32.17,141.58 c 28.96,27.35 30.57,70.79 30.57,90.09 0,19.31 0,72.4 0,72.4 0,0 -128.71,62.75 -157.66,62.75 -28.96,0 -148.02,-56.31 -148.02,-56.31 v -77.23 c -9.65,-56.31 33.79,-93.31 33.79,-93.31 l 25.74,-139.97 c 0,0 -119.69,-156.64 -91.14,-326.76" /><path
         id="path384"
         style="fill:#f4735a;fill-opacity:1;fill-rule:nonzero;stroke:none"
         d="m 4029.43,2141.52 v -70.77 c 0,0 35.86,-60.6 68.79,-1.41 l -2.88,72.18 h -65.91" /><path
         id="path386"
         style="fill:#f4735a;fill-opacity:1;fill-rule:nonzero;stroke:none"
         d="m 4043.87,2309.32 c -61.04,-8 -70.81,-78.54 -56.13,-134.28 10.94,-41.59 35.86,-83.59 75.03,-82.58 39.16,1.01 62.77,54.55 69.78,87.39 11.27,52.85 9.18,142.3 -88.68,129.47" /><path
         id="path388"
         style="fill:#f4735a;fill-opacity:1;fill-rule:nonzero;stroke:none"
         d="m 3995.01,2190.46 c 0,0 -2.36,23.37 -21.2,15.57 -18.85,-7.79 4.14,-60.45 25.13,-54.4 20.98,6.05 -3.93,38.83 -3.93,38.83" /><path
         id="path390"
         style="fill:#f4735a;fill-opacity:1;fill-rule:nonzero;stroke:none"
         d="m 4120.4,2191.64 c 0,0 0.68,23.47 20.04,17.05 19.36,-6.42 0.21,-60.59 -21.16,-56.07 -21.37,4.53 1.12,39.02 1.12,39.02" /><path
         id="path392"
         style="fill:#d06350;fill-opacity:1;fill-rule:nonzero;stroke:none"
         d="m 4063.03,2089.44 c -9.27,0 -18.53,2.36 -26.59,7.11 -1.45,0.85 -1.92,2.71 -1.08,4.16 0.85,1.45 2.7,1.91 4.15,1.07 14.96,-8.81 35.41,-8.13 49.75,1.62 1.39,0.94 3.27,0.59 4.22,-0.8 0.93,-1.39 0.58,-3.27 -0.81,-4.21 -8.72,-5.94 -19.18,-8.95 -29.64,-8.95" /><path
         id="path394"
         style="fill:#f03f4d;fill-opacity:1;fill-rule:nonzero;stroke:none"
         d="m 4093.42,2270.75 c 0.81,-37.1 -6.19,-75.15 -25.67,-106.73 -19.48,-31.58 -52.58,-55.85 -89.52,-59.25 -13.11,32.05 -22.87,67.26 -19.19,101.68 3.69,34.43 19.82,68.35 47.57,89.06 27.74,20.71 67.57,26.08 97.79,9.19 25.3,-14.14 41.08,-41.45 47.85,-69.63 6.76,-28.18 6.15,-43.78 5.01,-72.74 -42.32,22.47 -69.75,60.87 -63.84,108.42" /><path
         id="path396"
         style="fill:#f4735a;fill-opacity:1;fill-rule:nonzero;stroke:none"
         d="m 4196.07,1664.19 c 0,0 -9.6,22.85 -12.63,22.35 -3.03,-0.51 -27.28,-27.79 -28.8,-31.33 -1.51,-3.54 3.54,-10.61 3.54,-10.61 l 9.6,5.05 4.04,-14.14 h 9.5 c 0,0 -10,-7.08 -9.5,-12.13 0.51,-5.05 5.56,-6.57 5.56,-6.57 l 14.96,9.1 11.02,-20.22 16.21,17.69 -23.5,40.81" /><path
         id="path398"
         style="fill:#d06350;fill-opacity:1;fill-rule:nonzero;stroke:none"
         d="m 4177.38,1613.78 c -0.3,0 -0.58,0.04 -0.88,0.13 -2.59,0.78 -7.14,3.58 -7.69,9.17 -0.33,3.27 1.84,6.65 4.4,9.39 h -1.38 c -1.35,0 -2.55,0.9 -2.92,2.21 l -3.02,10.56 -6.3,-3.32 c -1.33,-0.71 -2.99,-0.33 -3.87,0.92 -1.42,1.99 -5.9,8.82 -3.86,13.57 0.65,1.54 2.42,2.24 3.94,1.57 1.54,-0.64 2.27,-2.43 1.63,-3.96 -0.29,-0.69 0.45,-2.99 1.82,-5.43 l 7.12,3.74 c 0.79,0.44 1.74,0.48 2.6,0.11 0.83,-0.36 1.47,-1.07 1.72,-1.95 l 3.42,-11.95 h 7.21 c 1.32,0 2.49,-0.86 2.89,-2.11 0.41,-1.27 -0.06,-2.64 -1.13,-3.4 -4.04,-2.86 -8.42,-7.47 -8.23,-9.34 0.17,-1.82 1.39,-2.89 2.33,-3.46 l 13.58,8.27 c 1.44,0.84 3.31,0.4 4.17,-1.02 0.87,-1.44 0.42,-3.3 -1.02,-4.17 l -14.95,-9.1 c -0.48,-0.28 -1.03,-0.43 -1.58,-0.43" /><path
         id="path400"
         style="fill:#f4735a;fill-opacity:1;fill-rule:nonzero;stroke:none"
         d="m 3916.54,1664.19 c 0,0 9.6,22.85 12.63,22.35 3.04,-0.51 27.29,-27.79 28.8,-31.33 1.52,-3.54 -3.53,-10.61 -3.53,-10.61 l -9.6,5.05 -4.04,-14.14 h -9.5 c 0,0 10,-7.08 9.5,-12.13 -0.51,-5.05 -5.56,-6.57 -5.56,-6.57 l -14.96,9.1 -11.02,-20.22 -16.21,17.69 23.49,40.81" /><path
         id="path402"
         style="fill:#d06350;fill-opacity:1;fill-rule:nonzero;stroke:none"
         d="m 3935.23,1613.78 c -0.54,0 -1.1,0.15 -1.57,0.43 l -14.96,9.1 c -1.43,0.87 -1.88,2.73 -1.02,4.17 0.88,1.43 2.73,1.88 4.17,1.02 l 13.6,-8.27 c 0.92,0.57 2.15,1.64 2.33,3.46 0.19,1.87 -4.19,6.48 -8.23,9.34 -1.08,0.77 -1.54,2.13 -1.14,3.4 0.4,1.25 1.58,2.11 2.89,2.11 h 7.21 l 3.41,11.95 c 0.25,0.87 0.88,1.59 1.72,1.95 0.87,0.37 1.81,0.32 2.61,-0.1 l 7.13,-3.75 c 1.36,2.45 2.09,4.74 1.81,5.43 -0.64,1.53 0.08,3.32 1.61,3.96 1.51,0.63 3.3,-0.05 3.95,-1.57 2.04,-4.74 -2.42,-11.58 -3.85,-13.57 -0.87,-1.25 -2.53,-1.59 -3.87,-0.93 l -6.3,3.33 -3.02,-10.56 c -0.37,-1.31 -1.56,-2.21 -2.91,-2.21 h -1.39 c 2.55,-2.74 4.73,-6.12 4.41,-9.39 -0.57,-5.59 -5.12,-8.39 -7.71,-9.17 -0.3,-0.09 -0.58,-0.13 -0.88,-0.13" /><path
         id="path404"
         style="fill:#a6b4c2;fill-opacity:1;fill-rule:nonzero;stroke:none"
         d="m 2601.04,345.352 c -4.32,-4.43 -8.03,-9.313 -11.08,-14.532 l -4.66,2.41 c -0.67,2.969 -3.49,5.02 -6.58,4.661 -3.31,-0.391 -5.68,-3.391 -5.29,-6.7 0.39,-3.312 3.39,-5.679 6.69,-5.293 0.66,0.082 1.27,0.262 1.84,0.524 l 4.51,-2.34 c -2.51,-5.543 -4.32,-11.383 -5.39,-17.441 l 7.47,-1.309 c 2.3,13.059 8.49,25.059 17.92,34.719 l -5.43,5.301" /><path
         id="path406"
         style="fill:#a6b4c2;fill-opacity:1;fill-rule:nonzero;stroke:none"
         d="m 2655.92,368.371 c -1.71,0 -3.41,-0.062 -5.1,-0.172 l -0.74,6.262 c 1.88,1.488 2.96,3.891 2.66,6.437 -0.46,3.934 -4.02,6.754 -7.95,6.282 -3.93,-0.461 -6.74,-4.02 -6.28,-7.95 0.3,-2.539 1.89,-4.609 4.04,-5.64 l 0.74,-6.238 c -7.14,-1.161 -14.03,-3.321 -20.6,-6.461 l 3.27,-6.84 c 9.34,4.469 19.42,6.738 29.96,6.738 4.96,0 9.92,-0.527 14.75,-1.578 l 1.6,7.41 c -5.35,1.16 -10.85,1.75 -16.35,1.75" /><path
         id="path408"
         style="fill:#a6b4c2;fill-opacity:1;fill-rule:nonzero;stroke:none"
         d="m 2721.94,342.891 c 3.31,0.41 5.66,3.418 5.26,6.73 -0.41,3.309 -3.42,5.66 -6.73,5.25 -3.09,-0.379 -5.35,-3.031 -5.3,-6.082 l -4.16,-3.637 c -4.17,4.309 -8.89,8.129 -14.07,11.399 l -4.04,-6.422 c 11.34,-7.137 20.2,-17.258 25.63,-29.25 l 6.91,3.133 c -2.51,5.539 -5.68,10.718 -9.43,15.449 l 4.03,3.508 c 0.61,-0.117 1.25,-0.16 1.9,-0.078" /><path
         id="path410"
         style="fill:#a6b4c2;fill-opacity:1;fill-rule:nonzero;stroke:none"
         d="m 2650.44,266.281 c -3.86,-0.23 -7.75,-0.34 -11.57,-0.34 -8.8,0 -17.33,0.598 -24.78,1.789 -3.91,0.622 -8.46,1.551 -12.71,2.918 10.47,-18.609 30.7,-31.25 53.89,-31.25 28.55,0 52.62,19.161 59.49,45.032 -6.81,-4.489 -15.05,-8.25 -24.58,-11.219 -11.79,-3.68 -25.55,-6.07 -39.74,-6.93" /><path
         id="path412"
         style="fill:#a6b4c2;fill-opacity:1;fill-rule:nonzero;stroke:none"
         d="m 2681.7,297.141 c -7.5,0 -13.61,6.101 -13.61,13.601 0,7.5 6.11,13.61 13.61,13.61 7.5,0 13.6,-6.11 13.6,-13.61 0,-7.5 -6.1,-13.601 -13.6,-13.601 z m -47.38,-9.082 c -10.2,0 -18.49,8.293 -18.49,18.492 0,10.199 8.29,18.5 18.49,18.5 10.2,0 18.5,-8.301 18.5,-18.5 0,-10.199 -8.3,-18.492 -18.5,-18.492 z m 21.6,65.152 c -33.53,0 -60.8,-26.672 -60.8,-59.441 0,-4.25 0.46,-8.489 1.37,-12.61 6.74,-4.828 27.06,-8.898 53.48,-7.308 28.79,1.73 52.97,9.57 66.72,21.578 -0.06,1.949 -0.21,3.902 -0.45,5.82 -3.8,29.621 -29.74,51.961 -60.32,51.961" /><path
         id="path414"
         style="fill:#a6b4c2;fill-opacity:1;fill-rule:nonzero;stroke:none"
         d="m 2815.95,334.531 c -2.95,1.16 -8.05,3.09 -13.82,2.379 -5.51,-0.691 -8.44,-3.41 -8.44,-10.07 v -8.66 h 22.28 v -17.168 h -22.28 v -54.551 h -19.32 v 54.551 h -13.39 v 17.168 h 13.39 v 8.879 c 0,16.8 8.96,27.832 25.69,27.832 6.42,0 11.57,-1.211 15.89,-3.082 v -17.278" /><path
         id="path416"
         style="fill:#a6b4c2;fill-opacity:1;fill-rule:nonzero;stroke:none"
         d="m 2862.98,301.211 c -1.77,0.301 -3.58,0.469 -5.26,0.469 -8.96,0 -15.1,-5.481 -15.1,-16.141 v -39.078 h -19.32 v 71.719 h 18.73 v -7.84 c 4.51,6.73 11.39,9.762 20.2,9.762 4.15,0 8.48,-1.27 10.94,-3.36 l -10.19,-15.531" /><path
         id="path418"
         style="fill:#a6b4c2;fill-opacity:1;fill-rule:nonzero;stroke:none"
         d="m 2888.51,289.09 h 31.75 c -1.78,9.18 -7.33,14.359 -15.62,14.359 -9.1,0 -14.43,-5.48 -16.13,-14.359 z m 51.14,-6.66 c 0,-2.219 -0.15,-4.879 -0.37,-6.508 h -50.85 c 2.07,-10.363 9.33,-14.883 18.43,-14.883 6.22,0 12.95,2.52 18.13,6.883 l 11.33,-12.43 c -8.14,-7.472 -18.5,-10.883 -30.57,-10.883 -21.98,0 -37.23,14.95 -37.23,37.532 0,22.57 14.81,37.961 36.27,37.961 20.65,0 34.79,-15.321 34.86,-37.672" /><path
         id="path420"
         style="fill:#a6b4c2;fill-opacity:1;fill-rule:nonzero;stroke:none"
         d="m 2965.04,289.09 h 31.75 c -1.78,9.18 -7.33,14.359 -15.62,14.359 -9.1,0 -14.43,-5.48 -16.13,-14.359 z m 51.14,-6.66 c 0,-2.219 -0.15,-4.879 -0.37,-6.508 h -50.84 c 2.07,-10.363 9.32,-14.883 18.42,-14.883 6.22,0 12.96,2.52 18.14,6.883 l 11.32,-12.43 c -8.14,-7.472 -18.5,-10.883 -30.57,-10.883 -21.98,0 -37.22,14.95 -37.22,37.532 0,22.57 14.8,37.961 36.26,37.961 20.65,0 34.79,-15.321 34.86,-37.672" /><path
         id="path422"
         style="fill:#a6b4c2;fill-opacity:1;fill-rule:nonzero;stroke:none"
         d="m 3042.87,282.359 c 0,-11.328 7.48,-19.757 18.43,-19.757 11.4,0 18.5,8.8 18.5,19.757 0,10.95 -7.1,19.762 -18.5,19.762 -10.95,0 -18.43,-8.441 -18.43,-19.762 z m 56.77,0 c 0,-21.539 -14.95,-37.75 -34.71,-37.75 -9.63,0 -16.43,3.782 -21.1,9.332 v -37.082 h -19.24 V 318.18 h 18.87 v -7.918 c 4.67,5.847 11.55,9.84 21.39,9.84 19.84,0 34.79,-16.2 34.79,-37.743" /><path
         id="path424"
         style="fill:#a6b4c2;fill-opacity:1;fill-rule:nonzero;stroke:none"
         d="m 3128.08,246.461 h -19.31 v 71.719 h 19.31 z m 2.59,95.18 c 0,-6.95 -5.4,-12.282 -12.36,-12.282 -6.95,0 -12.28,5.332 -12.28,12.282 0,6.961 5.33,12.441 12.28,12.441 6.96,0 12.36,-5.48 12.36,-12.441" /><path
         id="path426"
         style="fill:#a6b4c2;fill-opacity:1;fill-rule:nonzero;stroke:none"
         d="m 3160.32,292.652 27.02,25.528 h 23.68 l -34.79,-33.75 35.01,-37.969 h -23.76 l -27.16,29.008 V 246.461 H 3141 v 106.578 h 19.32 v -60.387" /><path
         id="path428"
         style="fill:#a6b4c2;fill-opacity:1;fill-rule:nonzero;stroke:none"
         d="m 1844.12,266.301 v 32.078 c -3.95,6.152 -12.44,11.422 -21.24,11.422 -14.2,0 -22.7,-11.711 -22.7,-27.391 0,-15.668 8.5,-27.238 22.7,-27.238 8.8,0 17.29,4.98 21.24,11.129 z m 0,-19.192 v 10.551 c -5.27,-7.18 -13.91,-12.308 -23.87,-12.308 -18.46,0 -31.49,14.058 -31.49,37.058 0,22.559 12.89,37.211 31.49,37.211 9.52,0 18.16,-4.691 23.87,-12.449 v 37.637 h 10.99 v -97.7 h -10.99" /><path
         id="path430"
         style="fill:#a6b4c2;fill-opacity:1;fill-rule:nonzero;stroke:none"
         d="m 1904.03,310.531 c -15.09,0 -22.55,-12.742 -23.14,-23.582 h 46.43 c -0.14,10.551 -7.17,23.582 -23.29,23.582 z m -34.71,-27.972 c 0,20.5 14.65,37.062 34.86,37.062 21.39,0 33.98,-16.699 33.98,-37.941 v -2.789 h -57.27 c 0.88,-13.321 10.25,-24.461 25.49,-24.461 8.05,0 16.26,3.23 21.82,8.941 l 5.27,-7.18 c -7.03,-7.031 -16.54,-10.839 -28.12,-10.839 -20.95,0 -36.03,15.089 -36.03,37.207" /><path
         id="path432"
         style="fill:#a6b4c2;fill-opacity:1;fill-rule:nonzero;stroke:none"
         d="m 1946.07,256.488 5.71,7.903 c 4.69,-5.422 13.63,-10.102 23.29,-10.102 10.84,0 16.7,5.121 16.7,12.16 0,17.133 -43.79,6.59 -43.79,32.813 0,10.976 9.51,20.359 26.36,20.359 12.01,0 20.51,-4.539 26.22,-10.262 l -5.13,-7.617 c -4.24,5.129 -12.01,8.938 -21.09,8.938 -9.67,0 -15.67,-4.828 -15.67,-11.129 0,-15.531 43.79,-5.27 43.79,-32.809 0,-11.871 -9.52,-21.39 -27.83,-21.39 -11.57,0 -21.38,3.519 -28.56,11.136" /><path
         id="path434"
         style="fill:#a6b4c2;fill-opacity:1;fill-rule:nonzero;stroke:none"
         d="m 2016.67,247.109 v 70.75 h 10.99 v -70.75 z m -1.9,88.18 c 0,4.102 3.37,7.473 7.32,7.473 4.1,0 7.47,-3.371 7.47,-7.473 0,-4.098 -3.37,-7.32 -7.47,-7.32 -3.95,0 -7.32,3.222 -7.32,7.32" /><path
         id="path436"
         style="fill:#a6b4c2;fill-opacity:1;fill-rule:nonzero;stroke:none"
         d="m 2097.09,267.469 v 30.91 c -3.81,6.152 -12.31,11.422 -21.1,11.422 -14.21,0 -22.7,-11.281 -22.7,-26.949 0,-15.532 8.49,-26.954 22.7,-26.954 8.79,0 17.29,5.422 21.1,11.571 z m -51.27,-38.52 5.56,8.199 c 5.86,-7.027 12.9,-9.668 23,-9.668 11.72,0 22.71,5.711 22.71,21.239 v 10.113 c -5.13,-7.184 -13.77,-12.602 -23.74,-12.602 -18.45,0 -31.49,13.77 -31.49,36.622 0,22.707 12.89,36.769 31.49,36.769 9.53,0 18.02,-4.691 23.74,-12.449 v 10.687 h 10.98 V 249.16 c 0,-23.441 -16.4,-30.762 -33.69,-30.762 -12.01,0 -20.21,2.352 -28.56,10.551" /><path
         id="path438"
         style="fill:#a6b4c2;fill-opacity:1;fill-rule:nonzero;stroke:none"
         d="m 2174.13,247.109 v 46.289 c 0,12.454 -6.3,16.403 -15.82,16.403 -8.64,0 -16.84,-5.27 -20.94,-10.981 v -51.711 h -10.99 v 70.75 h 10.99 v -10.257 c 4.98,5.859 14.64,12.019 25.19,12.019 14.79,0 22.56,-7.473 22.56,-22.851 v -49.661 h -10.99" /><path
         id="path440"
         style="fill:#a6b4c2;fill-opacity:1;fill-rule:nonzero;stroke:none"
         d="m 2234.04,310.531 c -15.09,0 -22.56,-12.742 -23.14,-23.582 h 46.43 c -0.15,10.551 -7.18,23.582 -23.29,23.582 z m -34.72,-27.972 c 0,20.5 14.65,37.062 34.87,37.062 21.38,0 33.98,-16.699 33.98,-37.941 v -2.789 h -57.27 c 0.88,-13.321 10.25,-24.461 25.48,-24.461 8.06,0 16.26,3.23 21.83,8.941 l 5.27,-7.18 c -7.03,-7.031 -16.55,-10.839 -28.12,-10.839 -20.95,0 -36.04,15.089 -36.04,37.207" /><path
         id="path442"
         style="fill:#a6b4c2;fill-opacity:1;fill-rule:nonzero;stroke:none"
         d="m 2333.5,266.301 v 32.078 c -3.96,6.152 -12.45,11.422 -21.24,11.422 -14.21,0 -22.7,-11.711 -22.7,-27.391 0,-15.668 8.49,-27.238 22.7,-27.238 8.79,0 17.28,4.98 21.24,11.129 z m 0,-19.192 v 10.551 c -5.27,-7.18 -13.92,-12.308 -23.88,-12.308 -18.45,0 -31.49,14.058 -31.49,37.058 0,22.559 12.89,37.211 31.49,37.211 9.52,0 18.17,-4.691 23.88,-12.449 v 37.637 h 10.98 v -97.7 h -10.98" /><path
         id="path444"
         style="fill:#a6b4c2;fill-opacity:1;fill-rule:nonzero;stroke:none"
         d="m 2429,255.172 c 14.35,0 22.85,11.57 22.85,27.238 0,15.68 -8.5,27.391 -22.85,27.391 -8.64,0 -17.29,-5.27 -21.1,-11.422 v -32.078 c 3.81,-6.149 12.46,-11.129 21.1,-11.129 z m -32.08,-8.063 v 97.7 h 10.98 v -37.637 c 5.72,7.758 14.21,12.449 23.88,12.449 18.46,0 31.5,-14.652 31.5,-37.211 0,-23 -13.04,-37.058 -31.5,-37.058 -9.96,0 -18.6,5.128 -23.88,12.308 v -10.551 h -10.98" /><path
         id="path446"
         style="fill:#a6b4c2;fill-opacity:1;fill-rule:nonzero;stroke:none"
         d="m 2475.28,229.391 c 1.62,-0.743 4.25,-1.18 6.01,-1.18 4.83,0 8.06,1.621 10.55,7.469 l 4.69,10.699 -29.59,71.48 h 11.86 l 23.58,-58.007 23.44,58.007 h 12.01 l -35.45,-85.109 c -4.24,-10.25 -11.42,-14.199 -20.8,-14.352 -2.34,0 -6,0.442 -8.05,1.032 l 1.75,9.961" /></g></g></svg>